<svg version="1.1" viewBox="0.0 0.0 280.4671916010499 280.1653543307087" fill="none" stroke="none" stroke-linecap="square" stroke-miterlimit="10" xmlns:xlink="http://www.w3.org/1999/xlink" xmlns="http://www.w3.org/2000/svg"><clipPath id="p.0"><path d="m0 0l280.4672 0l0 280.16534l-280.4672 0l0 -280.16534z" clip-rule="nonzero"/></clipPath><g clip-path="url(#p.0)"><path fill="#000000" fill-opacity="0.0" d="m0 0l280.4672 0l0 280.16534l-280.4672 0z" fill-rule="evenodd"/><path fill="#ff70ff" d="m66.18635 140.08287l74.04725 -86.69292l74.04724 86.69292l-74.04724 86.69292z" fill-rule="evenodd"/><path stroke="#ff70ff" stroke-width="24.0" stroke-linejoin="round" stroke-linecap="butt" d="m66.18635 140.08287l74.04725 -86.69292l74.04724 86.69292l-74.04724 86.69292z" fill-rule="evenodd"/><path fill="#ffff00" d="m95.19538 187.72913l0 0c-3.6181107 -16.342422 3.8203049 -31.882019 16.614174 -34.708664l0 0c6.143837 -1.3574066 12.72625 0.4583435 18.29918 5.047821c5.572937 4.5894775 9.679871 11.576721 11.417358 19.424622l0 0c3.6181183 16.342407 -3.8202972 31.882004 -16.614174 34.708664l0 0c-12.793869 2.826645 -26.09842 -8.130035 -29.716537 -24.472443z" fill-rule="evenodd"/><path stroke="#ff70ff" stroke-width="16.0" stroke-linejoin="round" stroke-linecap="butt" d="m95.19538 187.72913l0 0c-3.6181107 -16.342422 3.8203049 -31.882019 16.614174 -34.708664l0 0c6.143837 -1.3574066 12.72625 0.4583435 18.29918 5.047821c5.572937 4.5894775 9.679871 11.576721 11.417358 19.424622l0 0c3.6181183 16.342407 -3.8202972 31.882004 -16.614174 34.708664l0 0c-12.793869 2.826645 -26.09842 -8.130035 -29.716537 -24.472443z" fill-rule="evenodd"/><path fill="#ffff00" d="m151.04514 140.04388l0 0c1.9134369 -22.874153 16.282623 -40.352676 32.094498 -39.039368l0 0c7.5931244 0.63067627 14.510239 5.5991135 19.22966 13.812325c4.7194214 8.213203 6.854553 18.99839 5.935684 29.982948l0 0c-1.9134216 22.87416 -16.282623 40.352676 -32.094482 39.039368l0 0c-15.811874 -1.3132935 -27.078781 -20.921112 -25.16536 -43.795273z" fill-rule="evenodd"/><path stroke="#ff70ff" stroke-width="16.0" stroke-linejoin="round" stroke-linecap="butt" d="m151.04514 140.04388l0 0c1.9134369 -22.874153 16.282623 -40.352676 32.094498 -39.039368l0 0c7.5931244 0.63067627 14.510239 5.5991135 19.22966 13.812325c4.7194214 8.213203 6.854553 18.99839 5.935684 29.982948l0 0c-1.9134216 22.87416 -16.282623 40.352676 -32.094482 39.039368l0 0c-15.811874 -1.3132935 -27.078781 -20.921112 -25.16536 -43.795273z" fill-rule="evenodd"/><path fill="#ffff00" d="m94.409454 88.98151l0 0c9.114876 -13.637512 26.452385 -18.051216 38.72441 -9.858261l0 0c5.8932343 3.9343872 9.806305 10.309204 10.878357 17.722061c1.072052 7.412857 -0.7846985 15.256531 -5.1618195 21.805496l0 0c-9.114868 13.637512 -26.452385 18.051208 -38.72441 9.858261l0 0c-12.272026 -8.19294 -14.831406 -25.890038 -5.7165375 -39.527557z" fill-rule="evenodd"/><path stroke="#ff70ff" stroke-width="16.0" stroke-linejoin="round" stroke-linecap="butt" d="m94.409454 88.98151l0 0c9.114876 -13.637512 26.452385 -18.051216 38.72441 -9.858261l0 0c5.8932343 3.9343872 9.806305 10.309204 10.878357 17.722061c1.072052 7.412857 -0.7846985 15.256531 -5.1618195 21.805496l0 0c-9.114868 13.637512 -26.452385 18.051208 -38.72441 9.858261l0 0c-12.272026 -8.19294 -14.831406 -25.890038 -5.7165375 -39.527557z" fill-rule="evenodd"/></g></svg>