<svg version="1.1" viewBox="0.0 0.0 280.4671916010499 280.1653543307087" fill="none" stroke="none" stroke-linecap="square" stroke-miterlimit="10" xmlns:xlink="http://www.w3.org/1999/xlink" xmlns="http://www.w3.org/2000/svg"><clipPath id="p.0"><path d="m0 0l280.4672 0l0 280.16534l-280.4672 0l0 -280.16534z" clip-rule="nonzero"/></clipPath><g clip-path="url(#p.0)"><path fill="#000000" fill-opacity="0.0" d="m0 0l280.4672 0l0 280.16534l-280.4672 0z" fill-rule="evenodd"/><path fill="#93c47d" d="m160.00879 126.91475l0 0c-4.0646667 1.1798859 -4.628723 11.544632 -1.2598419 23.150314c3.3688812 11.605667 9.3949585 20.05745 13.459625 18.877563l0 0c4.0646667 -1.1798859 10.090744 7.271881 13.459625 18.877563c3.3688812 11.605667 2.8048248 21.970413 -1.2598419 23.1503l-58.877884 17.090973c4.0646667 -1.1798859 4.628723 -11.544632 1.2598495 -23.1503c-3.3688812 -11.605682 -9.3949585 -20.05745 -13.459625 -18.877563c-4.0646744 1.1798859 -10.090752 -7.2718964 -13.459633 -18.877563c-3.3688736 -11.605682 -2.8048248 -21.970428 1.2598495 -23.150314z" fill-rule="evenodd"/><path stroke="#93c47d" stroke-width="12.0" stroke-linejoin="round" stroke-linecap="butt" d="m160.00879 126.91475l0 0c-4.0646667 1.1798859 -4.628723 11.544632 -1.2598419 23.150314c3.3688812 11.605667 9.3949585 20.05745 13.459625 18.877563l0 0c4.0646667 -1.1798859 10.090744 7.271881 13.459625 18.877563c3.3688812 11.605667 2.8048248 21.970413 -1.2598419 23.1503l-58.877884 17.090973c4.0646667 -1.1798859 4.628723 -11.544632 1.2598495 -23.1503c-3.3688812 -11.605682 -9.3949585 -20.05745 -13.459625 -18.877563c-4.0646744 1.1798859 -10.090752 -7.2718964 -13.459633 -18.877563c-3.3688736 -11.605682 -2.8048248 -21.970428 1.2598495 -23.150314z" fill-rule="evenodd"/><path fill="#93c47d" d="m161.11115 122.37848l0 0c-4.2324524 0 -7.6635437 9.796616 -7.6635437 21.881363c0 12.084747 3.4310913 21.881363 7.6635437 21.881363l0 0c4.2324524 0 7.6635284 9.796631 7.6635284 21.881378c0 12.084732 -3.431076 21.881363 -7.6635284 21.881363l-61.308296 0c4.23246 0 7.663536 -9.796631 7.663536 -21.881363c0 -12.084747 -3.431076 -21.881378 -7.663536 -21.881378c-4.2324524 0 -7.663536 -9.796616 -7.663536 -21.881363c0 -12.084747 3.4310837 -21.881363 7.663536 -21.881363z" fill-rule="evenodd"/><path stroke="#93c47d" stroke-width="12.0" stroke-linejoin="round" stroke-linecap="butt" d="m161.11115 122.37848l0 0c-4.2324524 0 -7.6635437 9.796616 -7.6635437 21.881363c0 12.084747 3.4310913 21.881363 7.6635437 21.881363l0 0c4.2324524 0 7.6635284 9.796631 7.6635284 21.881378c0 12.084732 -3.431076 21.881363 -7.6635284 21.881363l-61.308296 0c4.23246 0 7.663536 -9.796631 7.663536 -21.881363c0 -12.084747 -3.431076 -21.881378 -7.663536 -21.881378c-4.2324524 0 -7.663536 -9.796616 -7.663536 -21.881363c0 -12.084747 3.4310837 -21.881363 7.663536 -21.881363z" fill-rule="evenodd"/><path fill="#93c47d" d="m92.13931 208.62325l0 0c0 -13.809814 15.599144 -25.004898 34.841652 -25.004898l0 0c19.242516 0 34.841652 11.195084 34.841652 25.004898l0 0c0 13.809814 -15.599136 25.004883 -34.841652 25.004883l0 0c-19.242508 0 -34.841652 -11.195068 -34.841652 -25.004883z" fill-rule="evenodd"/><path stroke="#93c47d" stroke-width="12.0" stroke-linejoin="round" stroke-linecap="butt" d="m92.13931 208.62325l0 0c0 -13.809814 15.599144 -25.004898 34.841652 -25.004898l0 0c19.242516 0 34.841652 11.195084 34.841652 25.004898l0 0c0 13.809814 -15.599136 25.004883 -34.841652 25.004883l0 0c-19.242508 0 -34.841652 -11.195068 -34.841652 -25.004883z" fill-rule="evenodd"/><path fill="#93c47d" d="m71.56889 205.19206l0 0c0 -13.80983 15.599136 -25.004898 34.841652 -25.004898l0 0c19.242508 0 34.841652 11.195068 34.841652 25.004898l0 0c0 13.809814 -15.599144 25.004883 -34.841652 25.004883l0 0c-19.242516 0 -34.841652 -11.195068 -34.841652 -25.004883z" fill-rule="evenodd"/><path stroke="#93c47d" stroke-width="12.0" stroke-linejoin="round" stroke-linecap="butt" d="m71.56889 205.19206l0 0c0 -13.80983 15.599136 -25.004898 34.841652 -25.004898l0 0c19.242508 0 34.841652 11.195068 34.841652 25.004898l0 0c0 13.809814 -15.599144 25.004883 -34.841652 25.004883l0 0c-19.242516 0 -34.841652 -11.195068 -34.841652 -25.004883z" fill-rule="evenodd"/><path fill="#93c47d" d="m86.916405 183.23247l0 0c0 -13.809814 15.599136 -25.004883 34.841652 -25.004883l0 0c19.242508 0 34.841644 11.195068 34.841644 25.004883l0 0c0 13.80983 -15.599136 25.004898 -34.841644 25.004898l0 0c-19.242516 0 -34.841652 -11.195068 -34.841652 -25.004898z" fill-rule="evenodd"/><path stroke="#93c47d" stroke-width="12.0" stroke-linejoin="round" stroke-linecap="butt" d="m86.916405 183.23247l0 0c0 -13.809814 15.599136 -25.004883 34.841652 -25.004883l0 0c19.242508 0 34.841644 11.195068 34.841644 25.004883l0 0c0 13.80983 -15.599136 25.004898 -34.841644 25.004898l0 0c-19.242516 0 -34.841652 -11.195068 -34.841652 -25.004898z" fill-rule="evenodd"/><path fill="#00ff00" d="m121.79589 106.18338l0 0c0 -20.943329 21.222404 -37.921257 47.401573 -37.921257l0 0c26.179169 0 47.40158 16.977928 47.40158 37.921257l0 0c0 20.943336 -21.222412 37.921265 -47.40158 37.921265l0 0c-26.179169 0 -47.401573 -16.977928 -47.401573 -37.921265z" fill-rule="evenodd"/><path stroke="#00ff00" stroke-width="12.0" stroke-linejoin="round" stroke-linecap="butt" d="m121.79589 106.18338l0 0c0 -20.943329 21.222404 -37.921257 47.401573 -37.921257l0 0c26.179169 0 47.40158 16.977928 47.40158 37.921257l0 0c0 20.943336 -21.222412 37.921265 -47.40158 37.921265l0 0c-26.179169 0 -47.401573 -16.977928 -47.401573 -37.921265z" fill-rule="evenodd"/><path fill="#00ff00" d="m103.8577 90.6647l0 0c0 -20.943336 21.222412 -37.92126 47.40158 -37.92126l0 0c26.179169 0 47.401566 16.977924 47.401566 37.92126l0 0c0 20.943336 -21.222397 37.921265 -47.401566 37.921265l0 0c-26.179169 0 -47.40158 -16.977928 -47.40158 -37.921265z" fill-rule="evenodd"/><path stroke="#00ff00" stroke-width="12.0" stroke-linejoin="round" stroke-linecap="butt" d="m103.8577 90.6647l0 0c0 -20.943336 21.222412 -37.92126 47.40158 -37.92126l0 0c26.179169 0 47.401566 16.977924 47.401566 37.92126l0 0c0 20.943336 -21.222397 37.921265 -47.401566 37.921265l0 0c-26.179169 0 -47.40158 -16.977928 -47.40158 -37.921265z" fill-rule="evenodd"/><path fill="#00ff00" d="m88.741646 103.39878l0 0c0 -20.943336 21.222412 -37.921257 47.401573 -37.921257l0 0c26.179169 0 47.40158 16.97792 47.40158 37.921257l0 0c0 20.943336 -21.222412 37.921257 -47.40158 37.921257l0 0c-26.179161 0 -47.401573 -16.97792 -47.401573 -37.921257z" fill-rule="evenodd"/><path stroke="#00ff00" stroke-width="12.0" stroke-linejoin="round" stroke-linecap="butt" d="m88.741646 103.39878l0 0c0 -20.943336 21.222412 -37.921257 47.401573 -37.921257l0 0c26.179169 0 47.40158 16.97792 47.40158 37.921257l0 0c0 20.943336 -21.222412 37.921257 -47.40158 37.921257l0 0c-26.179161 0 -47.401573 -16.97792 -47.401573 -37.921257z" fill-rule="evenodd"/><path fill="#ffa7ff" d="m41.10741 106.18338l0 0c0 -20.943329 21.222408 -37.921257 47.401577 -37.921257l0 0c26.179161 0 47.401566 16.977928 47.401566 37.921257l0 0c0 20.943336 -21.222404 37.921265 -47.401566 37.921265l0 0c-26.179169 0 -47.401577 -16.977928 -47.401577 -37.921265z" fill-rule="evenodd"/><path stroke="#ffa7ff" stroke-width="12.0" stroke-linejoin="round" stroke-linecap="butt" d="m41.10741 106.18338l0 0c0 -20.943329 21.222408 -37.921257 47.401577 -37.921257l0 0c26.179161 0 47.401566 16.977928 47.401566 37.921257l0 0c0 20.943336 -21.222404 37.921265 -47.401566 37.921265l0 0c-26.179169 0 -47.401577 -16.977928 -47.401577 -37.921265z" fill-rule="evenodd"/><path fill="#ffa7ff" d="m75.60297 90.6647l0 0c0 -20.943336 21.222404 -37.92126 47.401573 -37.92126l0 0c26.179161 0 47.401573 16.977924 47.401573 37.92126l0 0c0 20.943336 -21.222412 37.921265 -47.401573 37.921265l0 0c-26.179169 0 -47.401573 -16.977928 -47.401573 -37.921265z" fill-rule="evenodd"/><path stroke="#ffa7ff" stroke-width="12.0" stroke-linejoin="round" stroke-linecap="butt" d="m75.60297 90.6647l0 0c0 -20.943336 21.222404 -37.92126 47.401573 -37.92126l0 0c26.179161 0 47.401573 16.977924 47.401573 37.92126l0 0c0 20.943336 -21.222412 37.921265 -47.401573 37.921265l0 0c-26.179169 0 -47.401573 -16.977928 -47.401573 -37.921265z" fill-rule="evenodd"/><path fill="#ffa7ff" d="m107.29568 106.196526l0 0c0 -31.006226 29.563316 -56.141735 66.0315 -56.141735l0 0c36.468185 0 66.031494 25.13551 66.031494 56.141735l0 0c0 31.006218 -29.563309 56.14173 -66.031494 56.14173l0 0c-36.468185 0 -66.0315 -25.135513 -66.0315 -56.14173z" fill-rule="evenodd"/><path stroke="#ffa7ff" stroke-width="12.0" stroke-linejoin="round" stroke-linecap="butt" d="m107.29568 106.196526l0 0c0 -31.006226 29.563316 -56.141735 66.0315 -56.141735l0 0c36.468185 0 66.031494 25.13551 66.031494 56.141735l0 0c0 31.006218 -29.563309 56.14173 -66.031494 56.14173l0 0c-36.468185 0 -66.0315 -25.135513 -66.0315 -56.14173z" fill-rule="evenodd"/><path fill="#ffa7ff" d="m103.8577 84.45932l0 0c0 -20.943336 21.222412 -37.92126 47.40158 -37.92126l0 0c26.179169 0 47.401566 16.977924 47.401566 37.92126l0 0c0 20.943329 -21.222397 37.921257 -47.401566 37.921257l0 0c-26.179169 0 -47.40158 -16.977928 -47.40158 -37.921257z" fill-rule="evenodd"/><path stroke="#ffa7ff" stroke-width="12.0" stroke-linejoin="round" stroke-linecap="butt" d="m103.8577 84.45932l0 0c0 -20.943336 21.222412 -37.92126 47.40158 -37.92126l0 0c26.179169 0 47.401566 16.977924 47.401566 37.92126l0 0c0 20.943329 -21.222397 37.921257 -47.401566 37.921257l0 0c-26.179169 0 -47.40158 -16.977928 -47.40158 -37.921257z" fill-rule="evenodd"/><path fill="#f9cb9c" d="m70.81849 96.99466l0 0c-1.3307037 -7.462364 4.9373093 -14.809128 14.0 -16.409447l0 0c9.062691 -1.6003189 17.488197 3.1518097 18.818901 10.614174l0 0c1.3306961 7.462364 -4.937317 14.809128 -14.0 16.409447l0 0c-9.062691 1.6003265 -17.488197 -3.151802 -18.818901 -10.614174z" fill-rule="evenodd"/><path fill="#f9cb9c" d="m145.47305 69.24757l0 0c2.739685 -9.114872 13.301529 -13.993912 23.59056 -10.89764l0 0c10.289017 3.0962753 16.408966 12.995365 13.669281 22.11024l0 0c-2.7396698 9.114868 -13.301529 13.993912 -23.590546 10.897636l0 0c-10.289017 -3.0962753 -16.408966 -12.995361 -13.669296 -22.110237z" fill-rule="evenodd"/><path fill="#f9cb9c" d="m148.00279 117.92752l0 0c4.148651 -11.593628 19.751709 -16.613678 34.850388 -11.212593l0 0c15.098679 5.401085 23.975433 19.178024 19.826767 30.771645l0 0c-4.148651 11.593643 -19.751709 16.613693 -34.850388 11.212601l0 0c-15.098679 -5.4010773 -23.975433 -19.178024 -19.826767 -30.771652z" fill-rule="evenodd"/></g></svg>