<svg version="1.1" viewBox="0.0 0.0 280.4671916010499 280.1653543307087" fill="none" stroke="none" stroke-linecap="square" stroke-miterlimit="10" xmlns:xlink="http://www.w3.org/1999/xlink" xmlns="http://www.w3.org/2000/svg"><clipPath id="p.0"><path d="m0 0l280.4672 0l0 280.16534l-280.4672 0l0 -280.16534z" clip-rule="nonzero"/></clipPath><g clip-path="url(#p.0)"><path fill="#000000" fill-opacity="0.0" d="m0 0l280.4672 0l0 280.16534l-280.4672 0z" fill-rule="evenodd"/><path fill="#c4bbde" d="m89.78291 50.231865l0 0c10.727661 -15.325672 27.284142 -25.407738 42.64392 -25.968006c15.359772 -0.5602665 26.829056 8.499523 29.54103 23.334969l0 0c10.19574 -5.5176926 20.826233 -6.248768 28.67598 -1.9720879c7.8497467 4.276676 11.996735 13.058796 11.186615 23.689934l0 0c9.071487 -5.150673 18.632828 -5.6395645 25.291168 -1.2931824c6.658325 4.346382 9.471329 12.912918 7.440811 22.659752l0 0c11.619583 -3.7418823 22.184692 -0.4542389 27.123749 8.440346c4.939026 8.894577 3.3649292 21.798553 -4.0411987 33.128304l0 0c4.0173645 7.3357086 4.077057 17.280167 0.16366577 27.264038c-3.9133759 9.983871 -11.41597 19.027771 -20.56932 24.795044l0 0c-3.1856842 15.554352 -13.856644 30.771439 -28.030655 39.97252c-14.174011 9.201065 -29.721588 11.003784 -40.840652 4.735382c-9.96907 11.493469 -23.630966 18.169662 -35.71982 17.455276c-12.088829 -0.714386 -20.716896 -8.707794 -22.558556 -20.899231l0 0c-14.877518 11.246887 -32.09848 14.143524 -44.222794 7.438431c-12.12431 -6.7050934 -16.978447 -21.80989 -12.465248 -38.788544l0 0c-12.172573 -0.15933228 -22.148693 -5.7514496 -27.677944 -15.514862c-5.529249 -9.763412 -6.145874 -22.875717 -1.7107754 -36.379044l0 0c-8.257124 -5.040863 -10.809091 -16.25064 -6.389368 -28.065971c4.4197216 -11.8153305 14.870281 -21.721 26.1651 -24.800873l0 0c-1.9498558 -10.814095 3.7143784 -24.10012 14.039021 -32.929935c10.324646 -8.829811 22.9701 -11.202545 31.342255 -5.880913z" fill-rule="evenodd"/><path fill="#000000" fill-opacity="0.0" d="m43.791317 89.46462l0 0c0.9201431 5.103203 3.4788399 9.253822 7.33255 11.894562m-27.110641 40.971825c1.7269573 1.0542908 3.6592388 1.808258 5.747011 2.2424927m23.640142 49.64894c0.8316002 -3.1284637 1.9669571 -6.26001 3.3867302 -9.341248m53.303513 40.692535l0 0c2.7123947 -2.050476 5.2942276 -4.3407288 7.702423 -6.832535m50.573776 10.276306c10.613617 -12.236572 15.220871 -27.821762 11.842789 -40.06128m57.027252 -4.6454773c-4.884598 3.077652 -10.0457 5.097946 -15.078613 5.902481m35.486404 -57.961624l0 0c-1.2290344 1.880188 -2.5983887 3.6841736 -4.0890656 5.386978m-18.993332 -46.954613l0 0c-2.8985138 0.93341064 -5.782425 2.2809296 -8.561966 4.000595m-24.16957 -25.368256l0 0c-2.1786804 1.2370224 -4.2833557 2.7180939 -6.2655487 4.409096m-33.597656 -26.12722l0 0c0.57385254 3.1391678 0.7404938 6.468239 0.49624634 9.91407m-72.68085 -7.280388l0 0c-1.4785461 2.1122742 -2.8254395 4.2957497 -4.028061 6.529991" fill-rule="evenodd"/></g></svg>