<svg version="1.1" viewBox="0.0 0.0 249.6010498687664 281.1994750656168" fill="none" stroke="none" stroke-linecap="square" stroke-miterlimit="10" xmlns:xlink="http://www.w3.org/1999/xlink" xmlns="http://www.w3.org/2000/svg"><clipPath id="p.0"><path d="m0 0l249.60104 0l0 281.19946l-249.60104 0l0 -281.19946z" clip-rule="nonzero"/></clipPath><g clip-path="url(#p.0)"><path fill="#000000" fill-opacity="0.0" d="m0 0l249.60104 0l0 281.19946l-249.60104 0z" fill-rule="evenodd"/><path fill="#434343" d="m144.44305 275.74857l0 -76.188965l75.30708 76.188965z" fill-rule="evenodd"/><path stroke="#434343" stroke-width="12.0" stroke-linejoin="round" stroke-linecap="butt" d="m144.44305 275.74857l0 -76.188965l75.30708 76.188965z" fill-rule="evenodd"/><path fill="#434343" d="m108.09659 275.30762l-76.18897 0l76.18897 -75.30707z" fill-rule="evenodd"/><path stroke="#434343" stroke-width="12.0" stroke-linejoin="round" stroke-linecap="butt" d="m108.09659 275.30762l-76.18897 0l76.18897 -75.30707z" fill-rule="evenodd"/><path fill="#ff3d3d" d="m125.83341 6.5643044l0 0l0 0c29.512123 0 57.8155 11.723644 78.68372 32.591866c20.868225 20.868221 32.591873 49.171604 32.591873 78.68373l0 131.1496c0 0.0010223389 -8.392334E-4 0.0018615723 -0.0018615723 0.0018615723l-222.54932 -0.0018615723l0 0c-0.0010242462 0 -0.0018548965 -8.239746E-4 -0.0018548965 -0.0018615723l0.0018548965 -131.14774l0 0c0 -61.455814 49.81978 -111.27559 111.27559 -111.27559z" fill-rule="evenodd"/><path stroke="#ff3d3d" stroke-width="12.0" stroke-linejoin="round" stroke-linecap="butt" d="m125.83341 6.5643044l0 0l0 0c29.512123 0 57.8155 11.723644 78.68372 32.591866c20.868225 20.868221 32.591873 49.171604 32.591873 78.68373l0 131.1496c0 0.0010223389 -8.392334E-4 0.0018615723 -0.0018615723 0.0018615723l-222.54932 -0.0018615723l0 0c-0.0010242462 0 -0.0018548965 -8.239746E-4 -0.0018548965 -0.0018615723l0.0018548965 -131.14774l0 0c0 -61.455814 49.81978 -111.27559 111.27559 -111.27559z" fill-rule="evenodd"/><path fill="#cff3f0" d="m87.73438 73.98217l0 0c0 -21.039001 17.055489 -38.094486 38.09449 -38.094486l0 0c10.103287 0 19.79277 4.0135155 26.936874 11.157616c7.144104 7.144104 11.157608 16.833584 11.157608 26.93687l0 0c0 21.03901 -17.055481 38.09449 -38.094482 38.09449l0 0c-21.039001 0 -38.09449 -17.055481 -38.09449 -38.09449z" fill-rule="evenodd"/><path stroke="#9fc5e8" stroke-width="24.0" stroke-linejoin="round" stroke-linecap="butt" d="m87.73438 73.98217l0 0c0 -21.039001 17.055489 -38.094486 38.09449 -38.094486l0 0c10.103287 0 19.79277 4.0135155 26.936874 11.157616c7.144104 7.144104 11.157608 16.833584 11.157608 26.93687l0 0c0 21.03901 -17.055481 38.09449 -38.094482 38.09449l0 0c-21.039001 0 -38.09449 -17.055481 -38.09449 -38.09449z" fill-rule="evenodd"/><path fill="#434343" d="m67.95628 141.06879l45.732277 0l0 80.66142l-45.732277 0z" fill-rule="evenodd"/><path stroke="#434343" stroke-width="12.0" stroke-linejoin="round" stroke-linecap="butt" d="m67.95628 141.06879l45.732277 0l0 80.66142l-45.732277 0z" fill-rule="evenodd"/><path fill="#434343" d="m138.85107 141.06879l45.732285 0l0 80.66142l-45.732285 0z" fill-rule="evenodd"/><path stroke="#434343" stroke-width="12.0" stroke-linejoin="round" stroke-linecap="butt" d="m138.85107 141.06879l45.732285 0l0 80.66142l-45.732285 0z" fill-rule="evenodd"/></g></svg>