<svg version="1.1" viewBox="0.0 0.0 1445.713910761155 1453.713910761155" fill="none" stroke="none" stroke-linecap="square" stroke-miterlimit="10" xmlns:xlink="http://www.w3.org/1999/xlink" xmlns="http://www.w3.org/2000/svg"><clipPath id="p.0"><path d="m0 0l1445.7139 0l0 1453.7139l-1445.7139 0l0 -1453.7139z" clip-rule="nonzero"/></clipPath><g clip-path="url(#p.0)"><path fill="#000000" fill-opacity="0.0" d="m0 0l1445.7139 0l0 1453.7139l-1445.7139 0z" fill-rule="evenodd"/><path fill="#fff2cc" d="m350.04724 1386.364l5.0638733 -8.77002l8.769897 -5.063843l10.127747 0l8.769897 5.063843l5.0638733 8.77002l0 10.127686l-5.0638733 8.769897l-8.769897 5.063843l-10.127747 0l-8.769897 -5.063843l-5.0638733 -8.769897z" fill-rule="evenodd"/><path fill="#fff2cc" d="m88.22835 1421.1959l5.0638657 -8.769897l8.769905 -5.063843l10.127731 0l8.769905 5.063843l5.0638657 8.769897l0 10.127808l-5.0638657 8.769897l-8.769905 5.063843l-10.127731 0l-8.769905 -5.063843l-5.0638657 -8.769897z" fill-rule="evenodd"/><path fill="#fff2cc" d="m115.727036 522.5267l5.0638657 -8.769897l8.769905 -5.0638733l10.127731 0l8.769913 5.0638733l5.063858 8.769897l0 10.127747l-5.063858 8.769897l-8.769913 5.063843l-10.127731 0l-8.769905 -5.063843l-5.0638657 -8.769897z" fill-rule="evenodd"/><path fill="#fff2cc" d="m251.03412 542.5267l5.0638733 -8.769897l8.769897 -5.063843l10.127747 0l8.769897 5.063843l5.0638733 8.769897l0 10.127747l-5.0638733 8.769897l-8.769897 5.063843l-10.127747 0l-8.769897 -5.063843l-5.0638733 -8.769897z" fill-rule="evenodd"/><path fill="#fff2cc" d="m903.91864 964.56866l5.063843 -8.769897l8.769897 -5.063843l10.127747 0l8.769897 5.063843l5.063904 8.769897l0 10.127747l-5.063904 8.769897l-8.769897 5.063904l-10.127747 0l-8.769897 -5.063904l-5.063843 -8.769897z" fill-rule="evenodd"/><path fill="#fff2cc" d="m1367.9186 956.56866l5.063965 -8.769897l8.769897 -5.063843l10.127686 0l8.769897 5.063843l5.063843 8.769897l0 10.127747l-5.063843 8.769897l-8.769897 5.063904l-10.127686 0l-8.769897 -5.063904l-5.063965 -8.769897z" fill-rule="evenodd"/><path fill="#fff2cc" d="m1011.7992 1172.5687l5.063904 -8.769897l8.769836 -5.063965l10.127808 0l8.769897 5.063965l5.063843 8.769897l0 10.127686l-5.063843 8.769897l-8.769897 5.063843l-10.127808 0l-8.769836 -5.063843l-5.063904 -8.769897z" fill-rule="evenodd"/><path fill="#fff2cc" d="m1391.9186 524.56866l5.063965 -8.769897l8.769897 -5.0638733l10.127686 0l8.769897 5.0638733l5.063843 8.769897l0 10.127747l-5.063843 8.769897l-8.769897 5.063904l-10.127686 0l-8.769897 -5.063904l-5.063965 -8.769897z" fill-rule="evenodd"/><path fill="#fff2cc" d="m477.59842 84.73141l5.0638733 -8.769905l8.769897 -5.0638657l10.127747 0l8.769897 5.0638657l5.063843 8.769905l0 10.127739l-5.063843 8.769897l-8.769897 5.0638733l-10.127747 0l-8.769897 -5.0638733l-5.0638733 -8.769897z" fill-rule="evenodd"/><path fill="#fff2cc" d="m941.59845 76.73141l5.063843 -8.769905l8.769897 -5.0638657l10.127747 0l8.769897 5.0638657l5.063843 8.769905l0 10.127739l-5.063843 8.769897l-8.769897 5.0638733l-10.127747 0l-8.769897 -5.0638733l-5.063843 -8.769897z" fill-rule="evenodd"/><path fill="#fff2cc" d="m1162.021 150.86789l5.063843 -8.769897l8.769897 -5.0638733l10.127808 0l8.769897 5.0638733l5.063843 8.769897l0 10.127731l-5.063843 8.769913l-8.769897 5.063858l-10.127808 0l-8.769897 -5.063858l-5.063843 -8.769913z" fill-rule="evenodd"/><path fill="#fff2cc" d="m1264.7086 398.85223l8.840698 -15.310791l15.310791 -8.840668l17.681396 0l15.310791 8.840668l8.840576 15.310791l0 17.681335l-8.840576 15.310791l-15.310791 8.840668l-17.681396 0l-15.310791 -8.840668l-8.840698 -15.310791z" fill-rule="evenodd"/><path fill="#fff2cc" d="m62.401573 231.62904l5.0638657 -8.769897l8.769905 -5.0638733l10.127739 0l8.769897 5.0638733l5.0638733 8.769897l0 10.127731l-5.0638733 8.769913l-8.769897 5.063858l-10.127739 0l-8.769905 -5.063858l-5.0638657 -8.769913z" fill-rule="evenodd"/><path fill="#fff2cc" d="m109.59843 49.83377l5.0638657 -8.769905l8.769905 -5.0638657l10.127739 0l8.769897 5.0638657l5.0638733 8.769905l0 10.127735l-5.0638733 8.769901l-8.769897 5.0638657l-10.127739 0l-8.769905 -5.0638657l-5.0638657 -8.769901z" fill-rule="evenodd"/><path fill="#fff2cc" d="m97.5819 439.03348l2.5572586 -4.4288025l4.4288025 -2.557251l5.114502 0l4.4288025 2.557251l2.557251 4.4288025l0 5.1145325l-2.557251 4.428772l-4.4288025 2.5572815l-5.114502 0l-4.4288025 -2.5572815l-2.5572586 -4.428772z" fill-rule="evenodd"/><path fill="#fff2cc" d="m210.70703 515.7975l2.557251 -4.428833l4.4288025 -2.557251l5.114502 0l4.4288025 2.557251l2.557251 4.428833l0 5.114502l-2.557251 4.428772l-4.4288025 2.557251l-5.114502 0l-4.4288025 -2.557251l-2.557251 -4.428772z" fill-rule="evenodd"/><path fill="#fff2cc" d="m89.823006 576.15936l2.557251 -4.428833l4.4288025 -2.557251l5.114502 0l4.4288025 2.557251l2.557251 4.428833l0 5.114502l-2.557251 4.428772l-4.4288025 2.557251l-5.114502 0l-4.4288025 -2.557251l-2.557251 -4.428772z" fill-rule="evenodd"/><path fill="#fff2cc" d="m57.742638 491.71704l2.557251 -4.4288025l4.4288025 -2.557251l5.1145096 0l4.428795 2.557251l2.5572586 4.4288025l0 5.114502l-2.5572586 4.4288025l-4.428795 2.557251l-5.1145096 0l-4.4288025 -2.557251l-2.557251 -4.4288025z" fill-rule="evenodd"/><path fill="#fff2cc" d="m234.94814 426.91287l2.557251 -4.4288025l4.4288025 -2.557251l5.114502 0l4.4288025 2.557251l2.557251 4.4288025l0 5.114502l-2.557251 4.4288025l-4.4288025 2.557251l-5.114502 0l-4.4288025 -2.557251l-2.557251 -4.4288025z" fill-rule="evenodd"/><path fill="#fff2cc" d="m478.3042 520.9511l2.557251 -4.428772l4.4288025 -2.557251l5.114502 0l4.4288025 2.557251l2.557251 4.428772l0 5.114502l-2.557251 4.428833l-4.4288025 2.557251l-5.114502 0l-4.4288025 -2.557251l-2.557251 -4.428833z" fill-rule="evenodd"/><path fill="#fff2cc" d="m19.460733 595.676l2.557253 -4.428772l4.4288006 -2.557251l5.114506 0l4.4288006 2.557251l2.5572548 4.428772l0 5.114502l-2.5572548 4.428833l-4.4288006 2.557251l-5.114506 0l-4.4288006 -2.557251l-2.557253 -4.428833z" fill-rule="evenodd"/><path fill="#fff2cc" d="m372.3127 439.03363l2.557251 -4.4288025l4.4288025 -2.557251l5.114502 0l4.4288025 2.557251l2.557251 4.4288025l0 5.114502l-2.557251 4.4288025l-4.4288025 2.557251l-5.114502 0l-4.4288025 -2.557251l-2.557251 -4.4288025z" fill-rule="evenodd"/><path fill="#fff2cc" d="m652.06696 358.64877l2.557251 -4.4288025l4.428772 -2.557251l5.114502 0l4.428833 2.557251l2.557251 4.4288025l0 5.114502l-2.557251 4.4288025l-4.428833 2.557251l-5.114502 0l-4.428772 -2.557251l-2.557251 -4.4288025z" fill-rule="evenodd"/><path fill="#fff2cc" d="m393.46036 294.6994l2.557251 -4.4288025l4.4288025 -2.557251l5.114502 0l4.4288025 2.557251l2.557251 4.4288025l0 5.114502l-2.557251 4.4288025l-4.4288025 2.557251l-5.114502 0l-4.4288025 -2.557251l-2.557251 -4.4288025z" fill-rule="evenodd"/><path fill="#fff2cc" d="m359.96713 84.6907l2.557251 -4.4288025l4.4288025 -2.5572586l5.114502 0l4.4288025 2.5572586l2.557251 4.4288025l0 5.114502l-2.557251 4.4288025l-4.4288025 2.557251l-5.114502 0l-4.4288025 -2.557251l-2.557251 -4.4288025z" fill-rule="evenodd"/><path fill="#fff2cc" d="m739.84894 297.70822l2.557251 -4.4288025l4.428772 -2.557251l5.114563 0l4.428772 2.557251l2.557251 4.4288025l0 5.114502l-2.557251 4.4288025l-4.428772 2.557251l-5.114563 0l-4.428772 -2.557251l-2.557251 -4.4288025z" fill-rule="evenodd"/><path fill="#fff2cc" d="m263.00275 76.610275l2.557251 -4.4288025l4.4288025 -2.557251l5.114502 0l4.4288025 2.557251l2.557251 4.4288025l0 5.114502l-2.557251 4.4288025l-4.4288025 2.557251l-5.114502 0l-4.4288025 -2.557251l-2.557251 -4.4288025z" fill-rule="evenodd"/><path fill="#fff2cc" d="m376.12787 153.37425l2.557251 -4.4288025l4.4288025 -2.557251l5.114502 0l4.4288025 2.557251l2.557251 4.4288025l0 5.114502l-2.557251 4.4288025l-4.4288025 2.557251l-5.114502 0l-4.4288025 -2.557251l-2.557251 -4.4288025z" fill-rule="evenodd"/><path fill="#fff2cc" d="m287.24384 189.73613l2.557251 -4.428787l4.4288025 -2.5572662l5.114502 0l4.4288025 2.5572662l2.557251 4.428787l0 5.114517l-2.557251 4.4288025l-4.4288025 2.557251l-5.114502 0l-4.4288025 -2.557251l-2.557251 -4.4288025z" fill-rule="evenodd"/><path fill="#fff2cc" d="m541.4254 171.55519l2.557251 -4.4288025l4.428833 -2.557251l5.114502 0l4.428772 2.557251l2.557251 4.4288025l0 5.114502l-2.557251 4.4288025l-4.428772 2.557251l-5.114502 0l-4.428833 -2.557251l-2.557251 -4.4288025z" fill-rule="evenodd"/><path fill="#fff2cc" d="m174.11871 67.066475l2.557251 -4.4288025l4.4288025 -2.5572548l5.114517 0l4.4288025 2.5572548l2.557251 4.4288025l0 5.114502l-2.557251 4.4288025l-4.4288025 2.557251l-5.114517 0l-4.4288025 -2.557251l-2.557251 -4.4288025z" fill-rule="evenodd"/><path fill="#fff2cc" d="m77.15433 58.986053l2.557251 -4.4288025l4.4288025 -2.557251l5.114502 0l4.4288025 2.557251l2.557251 4.4288025l0 5.1145096l-2.557251 4.428795l-4.4288025 2.5572586l-5.114502 0l-4.4288025 -2.5572586l-2.557251 -4.428795z" fill-rule="evenodd"/><path fill="#fff2cc" d="m589.2945 408.17654l2.557251 -4.4288025l4.428833 -2.557251l5.114502 0l4.428772 2.557251l2.557251 4.4288025l0 5.114502l-2.557251 4.4288025l-4.428772 2.557251l-5.114502 0l-4.428833 -2.557251l-2.557251 -4.4288025z" fill-rule="evenodd"/><path fill="#fff2cc" d="m571.96204 266.85138l2.557251 -4.4288025l4.428772 -2.557251l5.114502 0l4.428833 2.557251l2.557251 4.4288025l0 5.114502l-2.557251 4.4288025l-4.428833 2.557251l-5.114502 0l-4.428772 -2.557251l-2.557251 -4.4288025z" fill-rule="evenodd"/><path fill="#fff2cc" d="m693.1675 186.0472l2.557251 -4.428787l4.428833 -2.5572662l5.114502 0l4.428772 2.5572662l2.557251 4.428787l0 5.114517l-2.557251 4.4288025l-4.428772 2.557251l-5.114502 0l-4.428833 -2.557251l-2.557251 -4.4288025z" fill-rule="evenodd"/><path fill="#fff2cc" d="m982.1373 271.92285l2.557251 -4.4288025l4.428833 -2.557251l5.114502 0l4.428772 2.557251l2.557251 4.4288025l0 5.114502l-2.557251 4.4288025l-4.428772 2.557251l-5.114502 0l-4.428833 -2.557251l-2.557251 -4.4288025z" fill-rule="evenodd"/><path fill="#fff2cc" d="m851.67975 53.833736l2.557251 -4.4287987l4.428772 -2.5572548l5.114502 0l4.428833 2.5572548l2.557251 4.4287987l0 5.114506l-2.557251 4.4288025l-4.428833 2.557251l-5.114502 0l-4.428772 -2.557251l-2.557251 -4.4288025z" fill-rule="evenodd"/><path fill="#fff2cc" d="m754.71533 45.75332l2.557251 -4.4288025l4.428833 -2.557251l5.114502 0l4.428772 2.557251l2.557251 4.4288025l0 5.114506l-2.557251 4.4288025l-4.428772 2.557251l-5.114502 0l-4.428833 -2.557251l-2.557251 -4.4288025z" fill-rule="evenodd"/><path fill="#fff2cc" d="m778.9564 158.87918l2.557251 -4.4288025l4.428833 -2.557251l5.114502 0l4.428772 2.557251l2.557251 4.4288025l0 5.114502l-2.557251 4.4288025l-4.428772 2.557251l-5.114502 0l-4.428833 -2.557251l-2.557251 -4.4288025z" fill-rule="evenodd"/><path fill="#fff2cc" d="m989.04596 41.713108l2.557251 -4.4287987l4.428833 -2.5572548l5.114502 0l4.428772 2.5572548l2.557251 4.4287987l0 5.114506l-2.557251 4.4288025l-4.428772 2.5572548l-5.114502 0l-4.428833 -2.5572548l-2.557251 -4.4288025z" fill-rule="evenodd"/><path fill="#fff2cc" d="m665.8313 36.20952l2.557251 -4.4288025l4.428833 -2.557253l5.114502 0l4.428772 2.557253l2.557251 4.4288025l0 5.114506l-2.557251 4.4287987l-4.428772 2.5572548l-5.114502 0l-4.428833 -2.5572548l-2.557251 -4.4287987z" fill-rule="evenodd"/><path fill="#fff2cc" d="m568.86694 28.129099l2.557251 -4.4288006l4.428772 -2.557253l5.114502 0l4.428833 2.557253l2.557251 4.4288006l0 5.114504l-2.557251 4.4288025l-4.428833 2.5572548l-5.114502 0l-4.428772 -2.5572548l-2.557251 -4.4288025z" fill-rule="evenodd"/><path fill="#fff2cc" d="m973.1103 206.46556l2.557251 -4.4288025l4.428833 -2.557251l5.114502 0l4.428772 2.557251l2.557251 4.4288025l0 5.114502l-2.557251 4.4288025l-4.428772 2.557251l-5.114502 0l-4.428833 -2.557251l-2.557251 -4.4288025z" fill-rule="evenodd"/><path fill="#fff2cc" d="m1041.4435 216.56609l2.557251 -4.4288025l4.428833 -2.557251l5.114502 0l4.428833 2.557251l2.557251 4.4288025l0 5.114502l-2.557251 4.4288025l-4.428833 2.557251l-5.114502 0l-4.428833 -2.557251l-2.557251 -4.4288025z" fill-rule="evenodd"/><path fill="#fff2cc" d="m1174.7695 289.28986l2.557251 -4.4288025l4.428833 -2.557251l5.114502 0l4.428711 2.557251l2.557251 4.4288025l0 5.114502l-2.557251 4.4288025l-4.428711 2.557251l-5.114502 0l-4.428833 -2.557251l-2.557251 -4.4288025z" fill-rule="evenodd"/><path fill="#fff2cc" d="m1371.165 429.70834l2.557251 -4.4288025l4.428833 -2.557251l5.114502 0l4.428833 2.557251l2.557251 4.4288025l0 5.114502l-2.557251 4.4288025l-4.428833 2.557251l-5.114502 0l-4.428833 -2.557251l-2.557251 -4.4288025z" fill-rule="evenodd"/><path fill="#fff2cc" d="m1262.0802 470.11044l2.557251 -4.4288025l4.428711 -2.557251l5.114502 0l4.428833 2.557251l2.557251 4.4288025l0 5.114502l-2.557251 4.4288025l-4.428833 2.557251l-5.114502 0l-4.428711 -2.557251l-2.557251 -4.4288025z" fill-rule="evenodd"/><path fill="#fff2cc" d="m1274.2007 421.62793l2.557251 -4.4288025l4.428833 -2.557251l5.114502 0l4.428833 2.557251l2.557251 4.4288025l0 5.114502l-2.557251 4.4288025l-4.428833 2.557251l-5.114502 0l-4.428833 -2.557251l-2.557251 -4.4288025z" fill-rule="evenodd"/><path fill="#fff2cc" d="m1298.4418 534.7538l2.557251 -4.428833l4.428833 -2.557251l5.114502 0l4.428833 2.557251l2.557251 4.428833l0 5.114502l-2.557251 4.428772l-4.428833 2.557312l-5.114502 0l-4.428833 -2.557312l-2.557251 -4.428772z" fill-rule="evenodd"/><path fill="#fff2cc" d="m1383.2856 211.53703l2.557251 -4.4288025l4.428833 -2.557251l5.114502 0l4.428833 2.557251l2.557251 4.4288025l0 5.114502l-2.557251 4.4288025l-4.428833 2.557251l-5.114502 0l-4.428833 -2.557251l-2.557251 -4.4288025z" fill-rule="evenodd"/><path fill="#fff2cc" d="m1407.5267 324.6629l2.557251 -4.4288025l4.428833 -2.557251l5.114502 0l4.428833 2.557251l2.557251 4.4288025l0 5.114502l-2.557251 4.4288025l-4.428833 2.557251l-5.114502 0l-4.428833 -2.557251l-2.557251 -4.4288025z" fill-rule="evenodd"/><path fill="#fff2cc" d="m1399.4464 280.22058l2.557251 -4.4288025l4.428711 -2.557251l5.114624 0l4.428711 2.557251l2.557251 4.4288025l0 5.114502l-2.557251 4.4288025l-4.428711 2.557251l-5.114624 0l-4.428711 -2.557251l-2.557251 -4.4288025z" fill-rule="evenodd"/><path fill="#fff2cc" d="m1310.5624 316.5825l2.557251 -4.4288025l4.428833 -2.557251l5.114502 0l4.428711 2.557251l2.557251 4.4288025l0 5.114502l-2.557251 4.4288025l-4.428711 2.557251l-5.114502 0l-4.428833 -2.557251l-2.557251 -4.4288025z" fill-rule="evenodd"/><path fill="#fff2cc" d="m1365.9531 70.21189l2.557251 -4.4288025l4.428833 -2.5572548l5.114502 0l4.428833 2.5572548l2.557251 4.4288025l0 5.114502l-2.557251 4.4288025l-4.428833 2.557251l-5.114502 0l-4.428833 -2.557251l-2.557251 -4.4288025z" fill-rule="evenodd"/><path fill="#fff2cc" d="m1277.0691 106.57378l2.557251 -4.4288025l4.428833 -2.5572586l5.114502 0l4.428833 2.5572586l2.557251 4.4288025l0 5.114502l-2.557251 4.4288025l-4.428833 2.557251l-5.114502 0l-4.428833 -2.557251l-2.557251 -4.4288025z" fill-rule="evenodd"/><path fill="#fff2cc" d="m1268.9888 62.13147l2.557251 -4.4288025l4.428833 -2.557251l5.114502 0l4.428711 2.557251l2.557251 4.4288025l0 5.1145096l-2.557251 4.428795l-4.428711 2.5572586l-5.114502 0l-4.428833 -2.5572586l-2.557251 -4.428795z" fill-rule="evenodd"/><path fill="#fff2cc" d="m1233.5006 1246.6948l2.557251 -4.428833l4.428833 -2.557251l5.114502 0l4.428833 2.557251l2.557251 4.428833l0 5.114502l-2.557251 4.428711l-4.428833 2.557251l-5.114502 0l-4.428833 -2.557251l-2.557251 -4.428711z" fill-rule="evenodd"/><path fill="#fff2cc" d="m1115.1636 810.4343l2.557251 -4.428772l4.428833 -2.557251l5.114502 0l4.428711 2.557251l2.557251 4.428772l0 5.114502l-2.557251 4.428833l-4.428711 2.557251l-5.114502 0l-4.428833 -2.557251l-2.557251 -4.428833z" fill-rule="evenodd"/><path fill="#fff2cc" d="m1392.0128 1114.4813l2.557251 -4.428833l4.428833 -2.557251l5.114502 0l4.428833 2.557251l2.557251 4.428833l0 5.114502l-2.557251 4.428833l-4.428833 2.557251l-5.114502 0l-4.428833 -2.557251l-2.557251 -4.428833z" fill-rule="evenodd"/><path fill="#fff2cc" d="m1408.1736 1183.1649l2.557251 -4.428833l4.428833 -2.557251l5.114502 0l4.428833 2.557251l2.557251 4.428833l0 5.114502l-2.557251 4.428711l-4.428833 2.557251l-5.114502 0l-4.428833 -2.557251l-2.557251 -4.428711z" fill-rule="evenodd"/><path fill="#fff2cc" d="m1404.1334 896.31l2.557251 -4.428772l4.428833 -2.557251l5.114502 0l4.428711 2.557251l2.557251 4.428772l0 5.114502l-2.557251 4.428833l-4.428711 2.557251l-5.114502 0l-4.428833 -2.557251l-2.557251 -4.428833z" fill-rule="evenodd"/><path fill="#fff2cc" d="m1331.4102 1001.35547l2.557251 -4.428833l4.428711 -2.557251l5.114624 0l4.428711 2.557251l2.557251 4.428833l0 5.114502l-2.557251 4.428772l-4.428711 2.557251l-5.114624 0l-4.428711 -2.557251l-2.557251 -4.428772z" fill-rule="evenodd"/><path fill="#fff2cc" d="m1273.6758 678.2209l2.557251 -4.428833l4.428833 -2.557251l5.114502 0l4.428833 2.557251l2.557251 4.428833l0 5.114502l-2.557251 4.428772l-4.428833 2.557251l-5.114502 0l-4.428833 -2.557251l-2.557251 -4.428772z" fill-rule="evenodd"/><path fill="#fff2cc" d="m1386.8009 754.98486l2.557251 -4.428833l4.428833 -2.557251l5.114502 0l4.428833 2.557251l2.557251 4.428833l0 5.114502l-2.557251 4.428772l-4.428833 2.557251l-5.114502 0l-4.428833 -2.557251l-2.557251 -4.428772z" fill-rule="evenodd"/><path fill="#fff2cc" d="m1297.9169 791.34674l2.557251 -4.428833l4.428833 -2.557251l5.114502 0l4.428833 2.557251l2.557251 4.428833l0 5.114502l-2.557251 4.428833l-4.428833 2.557251l-5.114502 0l-4.428833 -2.557251l-2.557251 -4.428833z" fill-rule="evenodd"/><path fill="#fff2cc" d="m1289.8365 746.9044l2.557251 -4.428772l4.428833 -2.557251l5.114502 0l4.428711 2.557251l2.557251 4.428772l0 5.114502l-2.557251 4.428833l-4.428711 2.557251l-5.114502 0l-4.428833 -2.557251l-2.557251 -4.428833z" fill-rule="evenodd"/><path fill="#fff2cc" d="m1200.9525 783.2663l2.557251 -4.428772l4.428833 -2.557251l5.114502 0l4.428711 2.557251l2.557251 4.428772l0 5.114502l-2.557251 4.428833l-4.428711 2.557251l-5.114502 0l-4.428833 -2.557251l-2.557251 -4.428833z" fill-rule="evenodd"/><path fill="#fff2cc" d="m1411.042 666.1002l2.557251 -4.428772l4.428833 -2.557251l5.114502 0l4.428833 2.557251l2.557251 4.428772l0 5.114563l-2.557251 4.428772l-4.428833 2.557251l-5.114502 0l-4.428833 -2.557251l-2.557251 -4.428772z" fill-rule="evenodd"/><path fill="#fff2cc" d="m120.46538 1341.3492l2.557251 -4.428833l4.4288025 -2.557251l5.114502 0l4.4288025 2.557251l2.557251 4.428833l0 5.114502l-2.557251 4.428833l-4.4288025 2.557251l-5.114502 0l-4.4288025 -2.557251l-2.557251 -4.428833z" fill-rule="evenodd"/><path fill="#fff2cc" d="m108.344826 1212.0625l2.557251 -4.428711l4.4288025 -2.557251l5.114502 0l4.4288025 2.557251l2.5572586 4.428711l0 5.114624l-2.5572586 4.428711l-4.4288025 2.557251l-5.114502 0l-4.4288025 -2.557251l-2.557251 -4.428711z" fill-rule="evenodd"/><path fill="#fff2cc" d="m19.460798 1248.4244l2.557253 -4.428833l4.4288006 -2.557251l5.114506 0l4.4288006 2.557251l2.5572548 4.428833l0 5.114502l-2.5572548 4.428833l-4.4288006 2.557251l-5.114506 0l-4.4288006 -2.557251l-2.557253 -4.428833z" fill-rule="evenodd"/><path fill="#fff2cc" d="m11.380432 1203.9822l2.557253 -4.428833l4.4288025 -2.557251l5.114506 0l4.4288006 2.557251l2.557253 4.428833l0 5.114502l-2.557253 4.428711l-4.4288006 2.557251l-5.114506 0l-4.4288025 -2.557251l-2.557253 -4.428711z" fill-rule="evenodd"/><path fill="#fff2cc" d="m11.380488 1051.7853l2.557253 -4.428833l4.4288015 -2.557251l5.114506 0l4.4288006 2.557251l2.557253 4.428833l0 5.114502l-2.557253 4.428833l-4.4288006 2.557251l-5.114506 0l-4.4288015 -2.557251l-2.557253 -4.428833z" fill-rule="evenodd"/><path fill="#fff2cc" d="m225.55138 358.64816l2.557251 -4.4288025l4.4288025 -2.557251l5.114502 0l4.4288025 2.557251l2.557251 4.4288025l0 5.114502l-2.557251 4.4288025l-4.4288025 2.557251l-5.114502 0l-4.4288025 -2.557251l-2.557251 -4.4288025z" fill-rule="evenodd"/><path fill="#fff2cc" d="m136.66734 395.01004l2.5572662 -4.4288025l4.4288025 -2.557251l5.114502 0l4.4288025 2.557251l2.557251 4.4288025l0 5.1145325l-2.557251 4.4288025l-4.4288025 2.557251l-5.114502 0l-4.4288025 -2.557251l-2.5572662 -4.4288025z" fill-rule="evenodd"/><path fill="#fff2cc" d="m128.58699 350.56775l2.557251 -4.4288025l4.4288025 -2.557251l5.114502 0l4.4288025 2.557251l2.557251 4.4288025l0 5.114502l-2.557251 4.4288025l-4.4288025 2.557251l-5.114502 0l-4.4288025 -2.557251l-2.557251 -4.4288025z" fill-rule="evenodd"/><path fill="#fff2cc" d="m249.79248 269.76355l2.557251 -4.4288025l4.4288025 -2.557251l5.114502 0l4.4288025 2.557251l2.557251 4.4288025l0 5.1145325l-2.557251 4.4288025l-4.4288025 2.557251l-5.114502 0l-4.4288025 -2.557251l-2.557251 -4.4288025z" fill-rule="evenodd"/><path fill="#fff2cc" d="m22.329222 855.14294l2.557253 -4.428833l4.4288006 -2.557251l5.1145077 0l4.4287987 2.557251l2.5572548 4.428833l0 5.114502l-2.5572548 4.428772l-4.4287987 2.557251l-5.1145077 0l-4.4288006 -2.557251l-2.557253 -4.428772z" fill-rule="evenodd"/><path fill="#fff2cc" d="m627.82776 1402.2279l2.557251 -4.428833l4.428833 -2.557251l5.114502 0l4.428772 2.557251l2.557251 4.428833l0 5.114502l-2.557251 4.428833l-4.428772 2.557251l-5.114502 0l-4.428833 -2.557251l-2.557251 -4.428833z" fill-rule="evenodd"/><path fill="#fff2cc" d="m530.86334 1394.1475l2.557312 -4.428711l4.428772 -2.557251l5.114502 0l4.428833 2.557251l2.557251 4.428711l0 5.114502l-2.557251 4.428833l-4.428833 2.557251l-5.114502 0l-4.428772 -2.557251l-2.557312 -4.428833z" fill-rule="evenodd"/><path fill="#fff2cc" d="m798.4606 1399.3011l2.557251 -4.428833l4.428772 -2.557251l5.114502 0l4.428833 2.557251l2.557251 4.428833l0 5.114502l-2.557251 4.428833l-4.428833 2.557251l-5.114502 0l-4.428772 -2.557251l-2.557251 -4.428833z" fill-rule="evenodd"/><path fill="#fff2cc" d="m1032.7911 1395.261l2.557251 -4.428833l4.428833 -2.557251l5.114502 0l4.428833 2.557251l2.557251 4.428833l0 5.114502l-2.557251 4.428711l-4.428833 2.557251l-5.114502 0l-4.428833 -2.557251l-2.557251 -4.428711z" fill-rule="evenodd"/><path fill="#fff2cc" d="m798.4606 1229.6123l2.557251 -4.428711l4.428772 -2.557251l5.114502 0l4.428833 2.557251l2.557251 4.428711l0 5.114502l-2.557251 4.428833l-4.428833 2.557251l-5.114502 0l-4.428772 -2.557251l-2.557251 -4.428833z" fill-rule="evenodd"/><path fill="#fff2cc" d="m931.78656 1302.3362l2.557251 -4.428833l4.428833 -2.557251l5.114502 0l4.428833 2.557251l2.557251 4.428833l0 5.114502l-2.557251 4.428711l-4.428833 2.557251l-5.114502 0l-4.428833 -2.557251l-2.557251 -4.428711z" fill-rule="evenodd"/><path fill="#fff2cc" d="m810.5811 1181.1299l2.557251 -4.428833l4.428772 -2.557251l5.114502 0l4.428833 2.557251l2.557251 4.428833l0 5.114502l-2.557251 4.428711l-4.428833 2.557251l-5.114502 0l-4.428772 -2.557251l-2.557251 -4.428711z" fill-rule="evenodd"/><path fill="#fff2cc" d="m834.8222 1294.2557l2.557251 -4.428833l4.428772 -2.557251l5.114502 0l4.428833 2.557251l2.557251 4.428833l0 5.114502l-2.557251 4.428833l-4.428833 2.557251l-5.114502 0l-4.428772 -2.557251l-2.557251 -4.428833z" fill-rule="evenodd"/><path fill="#fff2cc" d="m914.4541 959.0005l2.557251 -4.428772l4.428772 -2.557251l5.114502 0l4.428833 2.557251l2.557251 4.428772l0 5.114502l-2.557251 4.428833l-4.428833 2.557251l-5.114502 0l-4.428772 -2.557251l-2.557251 -4.428833z" fill-rule="evenodd"/><path fill="#fff2cc" d="m1186.1814 1084.8596l2.557251 -4.428711l4.428711 -2.557251l5.114502 0l4.428833 2.557251l2.557251 4.428711l0 5.114502l-2.557251 4.428833l-4.428833 2.557251l-5.114502 0l-4.428711 -2.557251l-2.557251 -4.428833z" fill-rule="evenodd"/><path fill="#fff2cc" d="m1071.6414 1323.1741l2.557251 -4.428711l4.428833 -2.557251l5.114502 0l4.428833 2.557251l2.557251 4.428711l0 5.114502l-2.557251 4.428833l-4.428833 2.557251l-5.114502 0l-4.428833 -2.557251l-2.557251 -4.428833z" fill-rule="evenodd"/><path fill="#fff2cc" d="m982.7574 1359.536l2.557251 -4.428833l4.428833 -2.557251l5.114502 0l4.428772 2.557251l2.557251 4.428833l0 5.114502l-2.557251 4.428833l-4.428772 2.557251l-5.114502 0l-4.428833 -2.557251l-2.557251 -4.428833z" fill-rule="evenodd"/><path fill="#fff2cc" d="m974.677 1315.0938l2.557251 -4.428833l4.428833 -2.557251l5.114502 0l4.428772 2.557251l2.557251 4.428833l0 5.114502l-2.557251 4.428711l-4.428772 2.557251l-5.114502 0l-4.428833 -2.557251l-2.557251 -4.428711z" fill-rule="evenodd"/><path fill="#fff2cc" d="m1095.8826 1234.2896l2.557251 -4.428833l4.428711 -2.557251l5.114502 0l4.428833 2.557251l2.557251 4.428833l0 5.114502l-2.557251 4.428711l-4.428833 2.557251l-5.114502 0l-4.428711 -2.557251l-2.557251 -4.428711z" fill-rule="evenodd"/><path fill="#fff2cc" d="m1070.4043 1083.9197l2.557251 -4.428833l4.428833 -2.557251l5.114502 0l4.428711 2.557251l2.557251 4.428833l0 5.114502l-2.557251 4.428711l-4.428711 2.557251l-5.114502 0l-4.428833 -2.557251l-2.557251 -4.428711z" fill-rule="evenodd"/><path fill="#fff2cc" d="m965.42487 1016.2004l2.557312 -4.428772l4.428772 -2.557251l5.114502 0l4.428833 2.557251l2.557251 4.428772l0 5.114502l-2.557251 4.428772l-4.428833 2.557251l-5.114502 0l-4.428772 -2.557251l-2.557312 -4.428772z" fill-rule="evenodd"/><path fill="#fff2cc" d="m1339.2386 1328.3278l2.557251 -4.428833l4.428711 -2.557251l5.114502 0l4.428833 2.557251l2.557251 4.428833l0 5.114502l-2.557251 4.428833l-4.428833 2.557251l-5.114502 0l-4.428711 -2.557251l-2.557251 -4.428833z" fill-rule="evenodd"/><path fill="#fff2cc" d="m1230.1537 1368.7299l2.557251 -4.428833l4.428711 -2.557251l5.114502 0l4.428833 2.557251l2.557251 4.428833l0 5.114502l-2.557251 4.428833l-4.428833 2.557251l-5.114502 0l-4.428711 -2.557251l-2.557251 -4.428833z" fill-rule="evenodd"/><path fill="#fff2cc" d="m1242.2742 1320.2473l2.557251 -4.428833l4.428833 -2.557251l5.114502 0l4.428833 2.557251l2.557251 4.428833l0 5.114502l-2.557251 4.428833l-4.428833 2.557251l-5.114502 0l-4.428833 -2.557251l-2.557251 -4.428833z" fill-rule="evenodd"/><path fill="#fff2cc" d="m1133.1892 1360.6494l2.557251 -4.428833l4.428833 -2.557251l5.114502 0l4.428833 2.557251l2.557251 4.428833l0 5.114502l-2.557251 4.428833l-4.428833 2.557251l-5.114502 0l-4.428833 -2.557251l-2.557251 -4.428833z" fill-rule="evenodd"/><path fill="#fff2cc" d="m1355.3993 1397.0114l2.557251 -4.428833l4.428833 -2.557251l5.114502 0l4.428833 2.557251l2.557251 4.428833l0 5.114502l-2.557251 4.428833l-4.428833 2.557251l-5.114502 0l-4.428833 -2.557251l-2.557251 -4.428833z" fill-rule="evenodd"/><path fill="#fff2cc" d="m1351.3591 1110.1565l2.557251 -4.428833l4.428833 -2.557251l5.114502 0l4.428833 2.557251l2.557251 4.428833l0 5.114502l-2.557251 4.428711l-4.428833 2.557251l-5.114502 0l-4.428833 -2.557251l-2.557251 -4.428711z" fill-rule="evenodd"/><path fill="#fff2cc" d="m1278.6359 1215.2019l2.557251 -4.428833l4.428833 -2.557251l5.114502 0l4.428711 2.557251l2.557251 4.428833l0 5.114502l-2.557251 4.428833l-4.428711 2.557251l-5.114502 0l-4.428833 -2.557251l-2.557251 -4.428833z" fill-rule="evenodd"/><path fill="#fff2cc" d="m1358.2677 879.9467l2.557251 -4.428833l4.428833 -2.557251l5.114502 0l4.428833 2.557251l2.557251 4.428833l0 5.114502l-2.557251 4.428772l-4.428833 2.557251l-5.114502 0l-4.428833 -2.557251l-2.557251 -4.428772z" fill-rule="evenodd"/><path fill="#fff2cc" d="m985.6258 966.25446l2.557251 -4.428772l4.428833 -2.557251l5.114502 0l4.428772 2.557251l2.557251 4.428772l0 5.114563l-2.557251 4.428772l-4.428772 2.557251l-5.114502 0l-4.428833 -2.557251l-2.557251 -4.428772z" fill-rule="evenodd"/><path fill="#666666" d="m703.10126 784.53284l111.221375 -81.52411l-27.2771 187.05286z" fill-rule="evenodd"/><path stroke="#666666" stroke-width="12.0" stroke-linejoin="round" stroke-linecap="butt" d="m703.10126 784.53284l111.221375 -81.52411l-27.2771 187.05286z" fill-rule="evenodd"/><path fill="#666666" d="m663.2298 733.1283l-84.92731 -106.76453l194.86127 26.184021z" fill-rule="evenodd"/><path stroke="#666666" stroke-width="12.0" stroke-linejoin="round" stroke-linecap="butt" d="m663.2298 733.1283l-84.92731 -106.76453l194.86127 26.184021z" fill-rule="evenodd"/><path fill="#ff3d3d" d="m1075.315 470.42096l0 0l0 0c32.896973 41.355682 47.515503 93.427795 40.63977 144.76111c-6.8758545 51.333313 -34.682617 97.7229 -77.30347 128.96344l-193.19275 141.60834c-0.0014648438 0.0010986328 -0.0036010742 8.544922E-4 -0.004699707 -6.1035156E-4l-248.0716 -311.86298l0 0c-0.0010986328 -0.0014648438 -8.544922E-4 -0.003479004 6.1035156E-4 -0.0045776367l193.1922 -141.60376l0 0c88.75311 -65.055176 216.23553 -47.979736 284.73993 38.139038z" fill-rule="evenodd"/><path stroke="#ff3d3d" stroke-width="12.0" stroke-linejoin="round" stroke-linecap="butt" d="m1075.315 470.42096l0 0l0 0c32.896973 41.355682 47.515503 93.427795 40.63977 144.76111c-6.8758545 51.333313 -34.682617 97.7229 -77.30347 128.96344l-193.19275 141.60834c-0.0014648438 0.0010986328 -0.0036010742 8.544922E-4 -0.004699707 -6.1035156E-4l-248.0716 -311.86298l0 0c-0.0010986328 -0.0014648438 -8.544922E-4 -0.003479004 6.1035156E-4 -0.0045776367l193.1922 -141.60376l0 0c88.75311 -65.055176 216.23553 -47.979736 284.73993 38.139038z" fill-rule="evenodd"/><path fill="#cff3f0" d="m895.80676 463.08133l0 0c51.37555 -37.65973 124.82202 -28.204834 164.04724 21.118103l0 0c18.83667 23.68573 27.101074 53.58548 22.975342 83.121735c-4.1258545 29.536255 -20.303955 56.28949 -44.97534 74.37433l0 0c-51.37549 37.65973 -124.82196 28.204834 -164.04724 -21.118103l0 0c-39.22522 -49.322937 -29.375488 -119.836334 22.0 -157.49606z" fill-rule="evenodd"/><path stroke="#cff3f0" stroke-width="24.0" stroke-linejoin="round" stroke-linecap="butt" d="m895.80676 463.08133l0 0c51.37555 -37.65973 124.82202 -28.204834 164.04724 21.118103l0 0c18.83667 23.68573 27.101074 53.58548 22.975342 83.121735c-4.1258545 29.536255 -20.303955 56.28949 -44.97534 74.37433l0 0c-51.37549 37.65973 -124.82196 28.204834 -164.04724 -21.118103l0 0c-39.22522 -49.322937 -29.375488 -119.836334 22.0 -157.49606z" fill-rule="evenodd"/><path fill="#999999" d="m114.31036 791.34064l0 0c-4.3259125 -37.6344 9.876938 -74.89014 36.581757 -95.95825c26.704834 -21.068115 61.22818 -22.253784 88.92052 -3.053772l0 0c9.809479 -21.882202 27.763687 -36.990295 48.43181 -40.754517c20.668152 -3.7641602 41.62265 4.2577515 56.525208 21.639282l0 0c8.356415 -19.839783 24.764374 -33.169617 43.40149 -35.25934c18.637085 -2.0897217 36.865753 7.3564453 48.21747 24.98645l0 0c15.097076 -21.030151 39.116913 -29.884705 61.665985 -22.7323c22.549042 7.152466 39.577362 29.027222 43.716644 56.158997l0 0c18.49646 5.9726562 33.903625 21.155945 42.240784 41.626892c8.337158 20.471008 8.786438 44.22162 1.2317505 65.11542l0 0c18.213684 28.062622 22.474304 65.45575 11.191895 98.22485c-11.282349 32.769165 -36.41266 55.99115 -66.01276 61.0c-0.20861816 30.755005 -14.456604 58.975464 -37.252045 73.783936c-22.795471 14.808472 -50.578857 13.892578 -72.641266 -2.3946533l0 0c-9.39743 36.83435 -35.847992 63.93689 -67.9241 69.59802c-32.07614 5.661133 -64.0275 -11.133789 -82.04999 -43.128906l0 0c-22.091751 15.770508 -48.60005 20.313477 -73.54512 12.604126c-24.945068 -7.7093506 -46.225677 -27.021606 -59.041336 -53.58026l0 0c-22.575012 3.1273804 -44.40193 -10.718811 -54.64814 -34.666687c-10.246201 -23.947937 -6.7305145 -52.899597 8.802238 -72.48651l0 0c-20.137497 -14.031067 -30.412865 -41.873413 -25.467896 -69.0083c4.9449615 -27.134949 23.989723 -47.413513 47.20317 -50.261353z" fill-rule="evenodd"/><path fill="#000000" fill-opacity="0.0" d="m92.12885 912.0607l0 0c9.502953 6.621338 20.481087 9.624939 31.460411 8.607483m14.380554 98.54816c4.721512 -0.65411377 9.349487 -2.0391846 13.764587 -4.119568m118.81528 45.093994c-3.3208008 -5.8953857 -6.101166 -12.19519 -8.293671 -18.79187m158.27347 -7.678467l0 0c1.7132874 -6.715454 2.8233643 -13.627136 3.311676 -20.61969m106.577484 -50.766968c0.22210693 -32.74347 -15.487671 -62.723694 -40.3815 -77.063354m95.20187 -82.15802c-4.031494 11.149719 -10.185974 21.040527 -17.980957 28.896912m-25.487854 -135.64215l0 0c0.68688965 4.5025635 1.0048218 9.072754 0.9492798 13.647278m-106.33008 -47.07263l0 0c-3.7659912 5.2459717 -6.8686523 11.108276 -9.211395 17.404358m-82.40845 -7.133728l0 0c-2.0069275 4.7648315 -3.5055847 9.806885 -4.461426 15.01001m-100.497116 4.105591l0 0c5.85968 4.062744 11.280685 8.952637 16.14392 14.562317m-141.64458 84.45026l0 0c0.59622955 5.1869507 1.5382919 10.309998 2.8173752 15.321167" fill-rule="evenodd"/><path fill="#999999" d="m736.7005 1047.2883l0 0c21.629272 31.662231 26.563965 71.05066 12.710144 101.451294c-13.853821 30.400635 -44.066467 46.48181 -77.81769 41.4198l0 0c1.5904541 23.773438 -7.278137 45.053467 -23.923157 57.40332c-16.644958 12.3498535 -39.11133 14.318848 -60.603455 5.3116455l0 0c1.9210815 21.320679 -6.4091187 40.34265 -22.034485 50.31604c-15.625427 9.973511 -36.334717 9.486816 -54.779083 -1.2872314l0 0c-3.5251465 25.315186 -20.753693 43.66089 -44.230743 47.098877c-23.477081 3.4381104 -48.985962 -8.649048 -65.48886 -31.031128l0 0c-19.307587 2.7259521 -40.211365 -4.102295 -57.310425 -18.720581c-17.09903 -14.618164 -28.716034 -35.592407 -31.849457 -57.50354l0 0c-29.487762 -17.086792 -50.944855 -48.562378 -56.363876 -82.680786c-5.419037 -34.11841 6.014145 -65.75354 30.032883 -83.099976c-14.33847 -27.503906 -14.965942 -58.8584 -1.6405334 -81.97821c13.325378 -23.119812 38.522827 -34.394653 65.88013 -29.47876l0 0c-9.019104 -36.92157 1.7583313 -72.59015 27.675995 -91.59558c25.917694 -19.005371 62.329376 -17.940552 93.503876 2.734497l0 0c12.243805 -23.67102 33.726654 -39.256653 59.602386 -43.24109c25.875793 -3.984375 53.964844 3.9680786 77.930786 22.063477l0 0c18.645447 -12.612061 44.640076 -9.76947 65.08276 7.1170654c20.442688 16.886475 30.98175 44.22223 26.386719 68.44049l0 0c24.575989 3.7426147 46.88391 24.087708 55.290955 50.426086c8.4071045 26.338318 1.0082397 52.7016 -18.338257 65.34235z" fill-rule="evenodd"/><path fill="#000000" fill-opacity="0.0" d="m699.4606 930.03284l0 0c-11.597473 -1.7661743 -22.801392 0.33422852 -32.10742 6.019287m-59.358704 -81.581116c-3.8996582 2.6377563 -7.3707275 5.8864136 -10.323669 9.66217m-127.20288 11.514099c5.7442017 3.8095703 11.197601 8.214722 16.267303 13.140442m-137.45175 75.72412l0 0c1.6443176 6.7313843 3.9189758 13.375061 6.7860413 19.820312m-71.02313 91.63257c15.265503 29.282104 43.427063 49.167725 72.38843 51.11548m-46.058624 114.661865c-1.6721191 -11.692627 -0.8573303 -23.187134 2.3805237 -33.58203m86.777405 109.810425l0 0c-2.738678 -3.7143555 -5.180359 -7.649536 -7.29126 -11.751099m117.008606 -4.3170166l0 0c0.8793335 -6.3148193 0.8763733 -12.890381 -0.00881958 -19.52185m76.82428 -29.505249l0 0c-0.46142578 -5.1206055 -1.5067139 -10.266968 -3.1119995 -15.320557m87.63977 -47.395508l0 0c-7.1417236 -1.071167 -14.283081 -3.0704346 -21.26715 -5.9541016m86.372986 -136.91675l0 0c-2.981018 -4.3638916 -6.2401733 -8.520264 -9.746887 -12.430176" fill-rule="evenodd"/><path fill="#fff2cc" d="m452.66403 302.48874l8.840668 -15.310791l15.310791 -8.840668l17.681335 0l15.310791 8.840668l8.840698 15.310791l0 17.681335l-8.840698 15.310791l-15.310791 8.840668l-17.681335 0l-15.310791 -8.840668l-8.840668 -15.310791z" fill-rule="evenodd"/><path fill="#000000" fill-opacity="0.0" d="m966.00543 692.99347l0 0c3.9223022 -2.9159546 4.738037 -8.459534 1.8220215 -12.381836l0 0c-1.4003296 -1.8835449 -3.491516 -3.133667 -5.8135376 -3.4753418c-2.3220825 -0.3416748 -4.6847534 0.25305176 -6.5682983 1.6533203l0 0c-3.9223022 2.9160156 -4.738037 8.459595 -1.8220215 12.381836l0 0c2.9160156 3.9223022 8.459534 4.738037 12.381836 1.8220215z" fill-rule="evenodd"/><path fill="#39a2c6" d="m855.82513 520.3097l60.311462 -44.83835l0 0c33.309082 -24.76352 84.16992 -12.746582 113.60083 26.840576c29.43103 39.58719 26.28711 91.75375 -7.0219116 116.5173l-60.311462 44.838318z" fill-rule="evenodd"/><path fill="#cfe2f3" d="m891.2822 575.7496l0 0c10.588928 -7.8723145 25.55481 -5.670044 33.427124 4.9188843l0 0c3.7803955 5.085022 5.3859863 11.463501 4.463501 17.7323c-0.9224243 6.268799 -4.2974243 11.914429 -9.382385 15.694824l0 0c-10.588989 7.8723145 -25.55481 5.670044 -33.427124 -4.9188843l0 0c-7.8723755 -10.588989 -5.670105 -25.55481 4.9188843 -33.427124z" fill-rule="evenodd"/><path fill="#000000" fill-opacity="0.0" d="m967.82745 680.61163c13.3793335 1.8310547E-4 32.148193 -24.981262 26.757874 -49.963135c-5.39032 -24.981812 -34.93976 -49.96399 -69.878784 -49.964417" fill-rule="evenodd"/><path stroke="#39a2c6" stroke-width="24.0" stroke-linejoin="round" stroke-linecap="butt" d="m967.82745 680.61163c13.3793335 1.8310547E-4 32.148193 -24.981262 26.757874 -49.963135c-5.39032 -24.981812 -34.93976 -49.96399 -69.878784 -49.964417" fill-rule="evenodd"/><path fill="#000000" fill-opacity="0.0" d="m840.74475 509.67258c56.87079 -0.0020141602 103.25012 17.747711 113.74567 35.498688c10.495605 17.750977 -14.892578 35.503235 -29.789185 35.503784" fill-rule="evenodd"/><path stroke="#39a2c6" stroke-width="24.0" stroke-linejoin="round" stroke-linecap="butt" d="m840.74475 509.67258c56.87079 -0.0020141602 103.25012 17.747711 113.74567 35.498688c10.495605 17.750977 -14.892578 35.503235 -29.789185 35.503784" fill-rule="evenodd"/><path fill="#39a2c6" d="m908.0247 620.77094l25.77832 34.674072l-38.34601 28.50824l-25.778381 -34.674133z" fill-rule="evenodd"/><path fill="#39a2c6" d="m854.3429 548.56433l25.778381 34.674133l-38.34607 28.508179l-25.77832 -34.674133z" fill-rule="evenodd"/><path fill="#39a2c6" d="m886.8572 497.23892l0 0c7.814331 -5.8095703 18.858704 -4.1843567 24.668274 3.6300354l85.802185 115.411316c2.789856 3.7525635 3.9747314 8.459717 3.2939453 13.0859375c-0.68078613 4.6262207 -3.1713867 8.7925415 -6.924011 11.582397l-56.59497 42.075317c-7.814392 5.8095703 -18.858765 4.184387 -24.668335 -3.630005l-85.802124 -115.411316c-5.8095703 -7.814331 -4.184387 -18.858765 3.630005 -24.668335z" fill-rule="evenodd"/><path fill="#434343" d="m861.2239 652.40686l10.487976 -7.797241l0 0c5.7923584 -4.3063354 16.899048 0.8261719 24.807495 11.463684c7.9084473 10.637573 9.62384 22.751892 3.831482 27.058228l-10.487976 7.797241z" fill-rule="evenodd"/><path stroke="#434343" stroke-width="12.0" stroke-linejoin="round" stroke-linecap="butt" d="m861.2239 652.40686l10.487976 -7.797241l0 0c5.7923584 -4.3063354 16.899048 0.8261719 24.807495 11.463684c7.9084473 10.637573 9.62384 22.751892 3.831482 27.058228l-10.487976 7.797241z" fill-rule="evenodd"/><path fill="#434343" d="m834.22894 493.4379l0 0c10.588989 -7.8723145 25.55481 -5.670044 33.427124 4.918915l0 0c3.7804565 5.0849915 5.3859863 11.463501 4.463562 17.7323c-0.92248535 6.268799 -4.2974854 11.914368 -9.382446 15.694824l0 0c-10.588989 7.8723145 -25.55481 5.670044 -33.427124 -4.9188843l0 0c-7.8723145 -10.588989 -5.670105 -25.55481 4.9188843 -33.427155z" fill-rule="evenodd"/><path fill="#000000" fill-opacity="0.0" d="m828.3629 507.85056l0 0c3.9223022 -2.9160156 9.46582 -2.1002808 12.381836 1.8220215l0 0c1.4003296 1.8835449 1.9950562 4.2462463 1.6533813 6.568268c-0.34173584 2.3220215 -1.5918579 4.413269 -3.4754028 5.8135376l0 0c-3.9223022 2.9160156 -9.46582 2.1002808 -12.381836 -1.8220215l0 0c-2.9160156 -3.9222412 -2.1002808 -9.46582 1.8220215 -12.381805z" fill-rule="evenodd"/><path fill="#434343" d="m981.91614 692.0885l0 0c10.588928 -7.8723755 12.791199 -22.838196 4.9188843 -33.427124l0 0c-3.7804565 -5.085022 -9.426025 -8.460022 -15.694824 -9.382446c-6.268799 -0.92248535 -12.647339 0.68310547 -17.7323 4.463501l0 0c-10.588989 7.8723145 -12.79126 22.838196 -4.9188843 33.427124l0 0c7.8723145 10.588989 22.838135 12.79126 33.427124 4.9189453z" fill-rule="evenodd"/><path fill="#000000" fill-opacity="0.0" d="m979.6344 586.5057l20.743652 27.902039l-22.339172 16.607971l-20.743652 -27.901978z" fill-rule="evenodd"/><path fill="#ffffff" d="m984.58765 538.804l0 0c15.956299 -11.862671 38.507996 -8.544128 50.370605 7.4122314l0 0c5.6966553 7.6624756 8.116089 17.274109 6.726074 26.720459c-1.3900146 9.446289 -6.475708 17.953552 -14.138184 23.650208l0 0c-15.95636 11.862671 -38.508057 8.544128 -50.370728 -7.4122314l0 0c-11.862671 -15.956299 -8.544067 -38.507996 7.4122314 -50.370667z" fill-rule="evenodd"/><path fill="#434343" d="m992.22015 549.0807l0 0c10.2854 -7.6466064 24.822144 -5.5075073 32.46881 4.777893l0 0c3.671997 4.939209 5.2315674 11.134827 4.3355713 17.223938c-0.89611816 6.0890503 -4.1743164 11.572815 -9.113464 15.244873l0 0c-10.2854 7.6466064 -24.822144 5.5074463 -32.46881 -4.777893l0 0c-7.6466064 -10.2854 -5.5075073 -24.822144 4.777893 -32.46881z" fill-rule="evenodd"/><path fill="#434343" d="m997.2667 555.83875l0 0c6.5391846 -4.861511 15.78125 -3.5014648 20.642761 3.0376587l0 0c2.3345947 3.1402588 3.3261108 7.0792847 2.7564697 10.9505005c-0.56970215 3.8712769 -2.6538696 7.357727 -5.7940674 9.692322l0 0c-6.5391846 4.861511 -15.781311 3.5015259 -20.642822 -3.0376587l0 0c-4.861511 -6.5391846 -3.5015259 -15.78125 3.0376587 -20.642822z" fill-rule="evenodd"/><path fill="#ffffff" d="m1017.4472 561.4524l0 0c3.9769287 -2.956604 9.597717 -2.1295166 12.554382 1.8474121l0 0c1.4197998 1.90979 2.0228271 4.30542 1.6762695 6.65979c-0.34643555 2.3544312 -1.6138916 4.4747314 -3.5236816 5.8945923l0 0c-3.9769287 2.956604 -9.597778 2.1295166 -12.554382 -1.8474121l0 0c-2.956665 -3.9769287 -2.1295166 -9.597717 1.8474121 -12.554382z" fill-rule="evenodd"/><path fill="#ffffff" d="m939.3727 477.98605l0 0c15.95636 -11.862671 38.508057 -8.544128 50.370728 7.412201l0 0c5.6966553 7.6624756 8.116028 17.274109 6.726013 26.720459c-1.3900757 9.44635 -6.475708 17.953552 -14.138245 23.650208l0 0c-15.956299 11.862671 -38.507996 8.544128 -50.370667 -7.4121704l0 0c-11.862671 -15.956299 -8.544128 -38.508057 7.4121704 -50.370697z" fill-rule="evenodd"/><path fill="#434343" d="m947.00525 488.26273l0 0c10.2854 -7.646637 24.822144 -5.5075073 32.46875 4.777893l0 0c3.672058 4.939209 5.2316284 11.134827 4.3355713 17.223907c-0.8959961 6.0891113 -4.1741943 11.572815 -9.113403 15.244873l0 0c-10.2854 7.6466064 -24.822205 5.5075073 -32.46881 -4.777893l0 0c-7.6466064 -10.28537 -5.5075073 -24.822144 4.777893 -32.46878z" fill-rule="evenodd"/><path fill="#434343" d="m952.0518 495.02078l0 0c6.5391846 -4.861511 15.78125 -3.5014954 20.642761 3.0376587l0 0c2.3345947 3.1402283 3.3261108 7.0792236 2.7564697 10.9505005c-0.56970215 3.8713074 -2.6538696 7.3576965 -5.7941284 9.692291l0 0c-6.5391235 4.861511 -15.78125 3.5015259 -20.642761 -3.0376587l0 0c-4.861511 -6.539154 -3.5015259 -15.78125 3.0376587 -20.642792z" fill-rule="evenodd"/><path fill="#ffffff" d="m972.2323 500.63443l0 0c3.9769287 -2.9566345 9.597656 -2.1295166 12.554321 1.8474121l0 0c1.4197998 1.90979 2.0228271 4.3053894 1.6763916 6.65979c-0.34643555 2.35437 -1.6140137 4.474701 -3.5238037 5.894562l0 0c-3.9769287 2.956604 -9.597717 2.1295166 -12.554321 -1.8474121l0 0c-2.956665 -3.9769592 -2.1295166 -9.597717 1.8474121 -12.554352z" fill-rule="evenodd"/><path fill="#434343" d="m807.62384 580.3102l10.487976 -7.797241l0 0c5.7923584 -4.3063354 16.899048 0.8261719 24.807495 11.463684c7.9084473 10.637512 9.62384 22.751892 3.831482 27.058228l-10.487976 7.797241z" fill-rule="evenodd"/><path stroke="#434343" stroke-width="12.0" stroke-linejoin="round" stroke-linecap="butt" d="m807.62384 580.3102l10.487976 -7.797241l0 0c5.7923584 -4.3063354 16.899048 0.8261719 24.807495 11.463684c7.9084473 10.637512 9.62384 22.751892 3.831482 27.058228l-10.487976 7.797241z" fill-rule="evenodd"/><path fill="#434343" d="m906.9574 542.194l0 0c5.3188477 -3.9542847 12.836243 -2.8480835 16.790588 2.4707642l34.899353 46.94275c1.8989258 2.5541992 2.7054443 5.7581177 2.2420654 8.906982c-0.4633789 3.1488647 -2.1586304 5.984619 -4.7128296 7.883545l-38.521545 28.638733c-5.3188477 3.9542847 -12.836243 2.8480835 -16.790527 -2.4707642l-34.899414 -46.94275c-3.9542847 -5.3188477 -2.8480835 -12.836243 2.4707642 -16.790588z" fill-rule="evenodd"/><path stroke="#434343" stroke-width="4.0" stroke-linejoin="round" stroke-linecap="butt" d="m906.9574 542.194l0 0c5.3188477 -3.9542847 12.836243 -2.8480835 16.790588 2.4707642l34.899353 46.94275c1.8989258 2.5541992 2.7054443 5.7581177 2.2420654 8.906982c-0.4633789 3.1488647 -2.1586304 5.984619 -4.7128296 7.883545l-38.521545 28.638733c-5.3188477 3.9542847 -12.836243 2.8480835 -16.790527 -2.4707642l-34.899414 -46.94275c-3.9542847 -5.3188477 -2.8480835 -12.836243 2.4707642 -16.790588z" fill-rule="evenodd"/><path fill="#ff3d3d" d="m821.6666 555.2047l0 0c0 -77.172 62.56024 -139.73227 139.7323 -139.73227l0 0c37.059265 0 72.60071 14.721741 98.805664 40.926636c26.204834 26.204895 40.926636 61.74637 40.926636 98.80563l0 0c0 77.172 -62.560303 139.7323 -139.7323 139.7323l0 0c-77.17206 0 -139.7323 -62.560303 -139.7323 -139.7323zm30.892029 0l0 0c0 60.11084 48.72943 108.84027 108.84027 108.84027c60.11078 0 108.84021 -48.72943 108.84021 -108.84027l0 0c0 -60.11081 -48.72943 -108.84027 -108.84021 -108.84027l0 0c-60.11084 0 -108.84027 48.72946 -108.84027 108.84027z" fill-rule="evenodd"/><path fill="#ff3d3d" d="m820.23096 556.65094l0 0c0 -80.20743 62.560303 -145.22836 139.7323 -145.22836l0 0c37.059326 0 72.60071 15.300781 98.805664 42.536407c26.204834 27.235596 40.926636 64.17499 40.926636 102.691956l0 0c0 80.2074 -62.560303 145.22833 -139.7323 145.22833l0 0c-77.172 0 -139.7323 -65.020935 -139.7323 -145.22833zm17.48053 0l0 0c0 70.55316 54.733948 127.7478 122.25177 127.7478c67.51782 0 122.25183 -57.19464 122.25183 -127.7478l0 0c0 -70.55319 -54.73401 -127.74786 -122.25183 -127.74786l0 0c-67.51782 0 -122.25177 57.19467 -122.25177 127.74786z" fill-rule="evenodd"/><path fill="#ff3d3d" d="m812.23096 548.65094l0 0c0 -80.20743 62.560303 -145.22836 139.7323 -145.22836l0 0c37.059326 0 72.60071 15.300781 98.805664 42.536407c26.204834 27.235596 40.926636 64.17499 40.926636 102.691956l0 0c0 80.2074 -62.560303 145.22833 -139.7323 145.22833l0 0c-77.172 0 -139.7323 -65.020935 -139.7323 -145.22833zm17.48053 0l0 0c0 70.55316 54.733948 127.7478 122.25177 127.7478c67.51776 0 122.25183 -57.19464 122.25183 -127.7478l0 0c0 -70.55319 -54.73407 -127.74786 -122.25183 -127.74786l0 0c-67.51782 0 -122.25177 57.19467 -122.25177 127.74786z" fill-rule="evenodd"/><path fill="#434343" d="m800.18964 563.4863l44.81891 56.346497l-103.4646 75.84247l-44.81891 -56.346436z" fill-rule="evenodd"/><path stroke="#434343" stroke-width="12.0" stroke-linejoin="round" stroke-linecap="butt" d="m800.18964 563.4863l44.81891 56.346497l-103.4646 75.84247l-44.81891 -56.346436z" fill-rule="evenodd"/><path fill="#434343" d="m865.4452 654.70917l44.818848 56.346436l-103.46454 75.84253l-44.81891 -56.346436z" fill-rule="evenodd"/><path stroke="#434343" stroke-width="12.0" stroke-linejoin="round" stroke-linecap="butt" d="m865.4452 654.70917l44.818848 56.346436l-103.46454 75.84253l-44.81891 -56.346436z" fill-rule="evenodd"/></g></svg>