<svg version="1.1" viewBox="0.0 0.0 1445.713910761155 1453.713910761155" fill="none" stroke="none" stroke-linecap="square" stroke-miterlimit="10" xmlns:xlink="http://www.w3.org/1999/xlink" xmlns="http://www.w3.org/2000/svg"><clipPath id="p.0"><path d="m0 0l1445.7139 0l0 1453.7139l-1445.7139 0l0 -1453.7139z" clip-rule="nonzero"/></clipPath><g clip-path="url(#p.0)"><path fill="#000000" fill-opacity="0.0" d="m0 0l1445.7139 0l0 1453.7139l-1445.7139 0z" fill-rule="evenodd"/><path fill="#fff2cc" d="m126.04724 1234.364l5.0638733 -8.77002l8.769897 -5.063843l10.127731 0l8.769913 5.063843l5.063858 8.77002l0 10.127686l-5.063858 8.769897l-8.769913 5.063843l-10.127731 0l-8.769897 -5.063843l-5.0638733 -8.769897z" fill-rule="evenodd"/><path fill="#fff2cc" d="m350.04724 1386.364l5.0638733 -8.77002l8.769897 -5.063843l10.127747 0l8.769897 5.063843l5.0638733 8.77002l0 10.127686l-5.0638733 8.769897l-8.769897 5.063843l-10.127747 0l-8.769897 -5.063843l-5.0638733 -8.769897z" fill-rule="evenodd"/><path fill="#fff2cc" d="m590.04724 1226.364l5.063843 -8.77002l8.7699585 -5.063843l10.127686 0l8.769897 5.063843l5.063904 8.77002l0 10.127686l-5.063904 8.769897l-8.769897 5.063843l-10.127686 0l-8.7699585 -5.063843l-5.063843 -8.769897z" fill-rule="evenodd"/><path fill="#fff2cc" d="m158.04724 1370.364l5.0638733 -8.77002l8.769897 -5.063843l10.127731 0l8.769913 5.063843l5.063858 8.77002l0 10.127686l-5.063858 8.769897l-8.769913 5.063843l-10.127731 0l-8.769897 -5.063843l-5.0638733 -8.769897z" fill-rule="evenodd"/><path fill="#fff2cc" d="m134.5315 275.03192l5.0638733 -8.769897l8.769897 -5.0638733l10.127731 0l8.769913 5.0638733l5.063858 8.769897l0 10.127747l-5.063858 8.769897l-8.769913 5.0638733l-10.127731 0l-8.769897 -5.0638733l-5.0638733 -8.769897z" fill-rule="evenodd"/><path fill="#fff2cc" d="m150.04724 802.36395l5.0638733 -8.769897l8.769897 -5.063843l10.127731 0l8.769913 5.063843l5.063858 8.769897l0 10.127747l-5.063858 8.769897l-8.769913 5.063843l-10.127731 0l-8.769897 -5.063843l-5.0638733 -8.769897z" fill-rule="evenodd"/><path fill="#fff2cc" d="m374.04724 954.36395l5.0638733 -8.769897l8.769897 -5.063843l10.127747 0l8.769897 5.063843l5.0638733 8.769897l0 10.127747l-5.0638733 8.769897l-8.769897 5.063843l-10.127747 0l-8.769897 -5.063843l-5.0638733 -8.769897z" fill-rule="evenodd"/><path fill="#fff2cc" d="m198.04724 1026.364l5.0638733 -8.7699585l8.769897 -5.063843l10.127731 0l8.769913 5.063843l5.063858 8.7699585l0 10.127686l-5.063858 8.769897l-8.769913 5.063843l-10.127731 0l-8.769897 -5.063843l-5.0638733 -8.769897z" fill-rule="evenodd"/><path fill="#fff2cc" d="m182.04724 938.36395l5.0638733 -8.769897l8.769897 -5.063843l10.127731 0l8.769913 5.063843l5.063858 8.769897l0 10.127747l-5.063858 8.769897l-8.769913 5.063843l-10.127731 0l-8.769897 -5.063843l-5.0638733 -8.769897z" fill-rule="evenodd"/><path fill="#fff2cc" d="m115.727036 522.5267l5.0638657 -8.769897l8.769905 -5.0638733l10.127731 0l8.769913 5.0638733l5.063858 8.769897l0 10.127747l-5.063858 8.769897l-8.769913 5.063843l-10.127731 0l-8.769905 -5.063843l-5.0638657 -8.769897z" fill-rule="evenodd"/><path fill="#fff2cc" d="m355.72702 362.52667l5.0638733 -8.769897l8.769897 -5.0638733l10.127747 0l8.769897 5.0638733l5.0638733 8.769897l0 10.127747l-5.0638733 8.769897l-8.769897 5.0638733l-10.127747 0l-8.769897 -5.0638733l-5.0638733 -8.769897z" fill-rule="evenodd"/><path fill="#fff2cc" d="m443.03412 558.5267l5.0638733 -8.769897l8.769897 -5.063843l10.127747 0l8.769897 5.063843l5.0638733 8.769897l0 10.127747l-5.0638733 8.769897l-8.769897 5.063843l-10.127747 0l-8.769897 -5.063843l-5.0638733 -8.769897z" fill-rule="evenodd"/><path fill="#fff2cc" d="m467.03412 462.52667l5.0638733 -8.769897l8.769897 -5.0638733l10.127747 0l8.769897 5.0638733l5.0638733 8.769897l0 10.127747l-5.0638733 8.769897l-8.769897 5.0638733l-10.127747 0l-8.769897 -5.0638733l-5.0638733 -8.769897z" fill-rule="evenodd"/><path fill="#fff2cc" d="m251.03412 542.5267l5.0638733 -8.769897l8.769897 -5.063843l10.127747 0l8.769897 5.063843l5.0638733 8.769897l0 10.127747l-5.0638733 8.769897l-8.769897 5.063843l-10.127747 0l-8.769897 -5.063843l-5.0638733 -8.769897z" fill-rule="evenodd"/><path fill="#fff2cc" d="m903.91864 964.56866l5.063843 -8.769897l8.769897 -5.063843l10.127747 0l8.769897 5.063843l5.063904 8.769897l0 10.127747l-5.063904 8.769897l-8.769897 5.063904l-10.127747 0l-8.769897 -5.063904l-5.063843 -8.769897z" fill-rule="evenodd"/><path fill="#fff2cc" d="m1367.9186 956.56866l5.063965 -8.769897l8.769897 -5.063843l10.127686 0l8.769897 5.063843l5.063843 8.769897l0 10.127747l-5.063843 8.769897l-8.769897 5.063904l-10.127686 0l-8.769897 -5.063904l-5.063965 -8.769897z" fill-rule="evenodd"/><path fill="#fff2cc" d="m783.91864 1020.56866l5.063843 -8.769897l8.769897 -5.063843l10.127747 0l8.769897 5.063843l5.063904 8.769897l0 10.127747l-5.063904 8.769897l-8.769897 5.063843l-10.127747 0l-8.769897 -5.063843l-5.063843 -8.769897z" fill-rule="evenodd"/><path fill="#fff2cc" d="m1011.7992 1172.5687l5.063904 -8.769897l8.769836 -5.063965l10.127808 0l8.769897 5.063965l5.063843 8.769897l0 10.127686l-5.063843 8.769897l-8.769897 5.063843l-10.127808 0l-8.769836 -5.063843l-5.063904 -8.769897z" fill-rule="evenodd"/><path fill="#fff2cc" d="m759.91864 1172.5687l5.063843 -8.769897l8.769897 -5.063965l10.127747 0l8.769897 5.063965l5.063904 8.769897l0 10.127686l-5.063904 8.769897l-8.769897 5.063843l-10.127747 0l-8.769897 -5.063843l-5.063843 -8.769897z" fill-rule="evenodd"/><path fill="#fff2cc" d="m1151.9186 684.56866l5.063965 -8.769897l8.769897 -5.063843l10.127686 0l8.769897 5.063843l5.063843 8.769897l0 10.127747l-5.063843 8.769897l-8.769897 5.063904l-10.127686 0l-8.769897 -5.063904l-5.063965 -8.769897z" fill-rule="evenodd"/><path fill="#fff2cc" d="m975.91864 756.56866l5.063843 -8.769897l8.769897 -5.063843l10.127747 0l8.769897 5.063843l5.063904 8.769897l0 10.127747l-5.063904 8.769897l-8.769897 5.063904l-10.127747 0l-8.769897 -5.063904l-5.063843 -8.769897z" fill-rule="evenodd"/><path fill="#fff2cc" d="m1391.9186 524.56866l5.063965 -8.769897l8.769897 -5.0638733l10.127686 0l8.769897 5.0638733l5.063843 8.769897l0 10.127747l-5.063843 8.769897l-8.769897 5.063904l-10.127686 0l-8.769897 -5.063904l-5.063965 -8.769897z" fill-rule="evenodd"/><path fill="#fff2cc" d="m1199.9186 508.56866l5.063965 -8.769897l8.769897 -5.0638733l10.127686 0l8.769897 5.0638733l5.063843 8.769897l0 10.127747l-5.063843 8.769897l-8.769897 5.063904l-10.127686 0l-8.769897 -5.063904l-5.063965 -8.769897z" fill-rule="evenodd"/><path fill="#fff2cc" d="m453.59842 180.73141l5.0638733 -8.769913l8.769897 -5.063858l10.127747 0l8.769897 5.063858l5.0638733 8.769913l0 10.127731l-5.0638733 8.769897l-8.769897 5.0638733l-10.127747 0l-8.769897 -5.0638733l-5.0638733 -8.769897z" fill-rule="evenodd"/><path fill="#fff2cc" d="m865.4094 263.0491l8.840698 -15.310791l15.310791 -8.840668l17.681335 0l15.310791 8.840668l8.840637 15.310791l0 17.681335l-8.840637 15.310791l-15.310791 8.840668l-17.681335 0l-15.310791 -8.840668l-8.840698 -15.310791z" fill-rule="evenodd"/><path fill="#fff2cc" d="m717.59845 324.7314l5.063843 -8.769897l8.769897 -5.0638733l10.127747 0l8.769897 5.0638733l5.063843 8.769897l0 10.127716l-5.063843 8.769928l-8.769897 5.063843l-10.127747 0l-8.769897 -5.063843l-5.063843 -8.769928z" fill-rule="evenodd"/><path fill="#fff2cc" d="m477.59842 84.73141l5.0638733 -8.769905l8.769897 -5.0638657l10.127747 0l8.769897 5.0638657l5.063843 8.769905l0 10.127739l-5.063843 8.769897l-8.769897 5.0638733l-10.127747 0l-8.769897 -5.0638733l-5.0638733 -8.769897z" fill-rule="evenodd"/><path fill="#fff2cc" d="m701.59845 236.73141l5.063843 -8.769913l8.769897 -5.063858l10.127747 0l8.769897 5.063858l5.063843 8.769913l0 10.127731l-5.063843 8.769897l-8.769897 5.063858l-10.127747 0l-8.769897 -5.063858l-5.063843 -8.769897z" fill-rule="evenodd"/><path fill="#fff2cc" d="m525.59845 308.7314l5.063843 -8.769897l8.769897 -5.0638733l10.127747 0l8.769897 5.0638733l5.063843 8.769897l0 10.127716l-5.063843 8.769928l-8.769897 5.063843l-10.127747 0l-8.769897 -5.063843l-5.063843 -8.769928z" fill-rule="evenodd"/><path fill="#fff2cc" d="m941.59845 76.73141l5.063843 -8.769905l8.769897 -5.0638657l10.127747 0l8.769897 5.0638657l5.063843 8.769905l0 10.127739l-5.063843 8.769897l-8.769897 5.0638733l-10.127747 0l-8.769897 -5.0638733l-5.063843 -8.769897z" fill-rule="evenodd"/><path fill="#fff2cc" d="m1220.9055 288.7314l5.063843 -8.769897l8.769897 -5.0638733l10.127808 0l8.769897 5.0638733l5.063843 8.769897l0 10.127716l-5.063843 8.769928l-8.769897 5.063843l-10.127808 0l-8.769897 -5.063843l-5.063843 -8.769928z" fill-rule="evenodd"/><path fill="#fff2cc" d="m1028.9055 272.7314l5.063843 -8.769897l8.769897 -5.0638733l10.127808 0l8.769897 5.0638733l5.063843 8.769897l0 10.127716l-5.063843 8.769928l-8.769897 5.063843l-10.127808 0l-8.769897 -5.063843l-5.063843 -8.769928z" fill-rule="evenodd"/><path fill="#fff2cc" d="m1264.7086 398.85223l8.840698 -15.310791l15.310791 -8.840668l17.681396 0l15.310791 8.840668l8.840576 15.310791l0 17.681335l-8.840576 15.310791l-15.310791 8.840668l-17.681396 0l-15.310791 -8.840668l-8.840698 -15.310791z" fill-rule="evenodd"/><path fill="#fff2cc" d="m11.727035 231.62904l5.0638666 -8.769897l8.769903 -5.0638733l10.127733 0l8.769905 5.0638733l5.0638657 8.769897l0 10.127731l-5.0638657 8.769913l-8.769905 5.063858l-10.127733 0l-8.769903 -5.063858l-5.0638666 -8.769913z" fill-rule="evenodd"/><path fill="#fff2cc" d="m301.59842 65.83377l5.0638733 -8.769905l8.769897 -5.0638657l10.127747 0l8.769897 5.0638657l5.0638733 8.769905l0 10.127731l-5.0638733 8.769905l-8.769897 5.0638657l-10.127747 0l-8.769897 -5.0638657l-5.0638733 -8.769905z" fill-rule="evenodd"/><path fill="#fff2cc" d="m109.59843 49.83377l5.0638657 -8.769905l8.769905 -5.0638657l10.127739 0l8.769897 5.0638657l5.0638733 8.769905l0 10.127735l-5.0638733 8.769901l-8.769897 5.0638657l-10.127739 0l-8.769905 -5.0638657l-5.0638657 -8.769901z" fill-rule="evenodd"/><path fill="#fff2cc" d="m373.59842 193.83377l5.0638733 -8.769897l8.769897 -5.0638733l10.127747 0l8.769897 5.0638733l5.0638733 8.769897l0 10.127731l-5.0638733 8.769913l-8.769897 5.063858l-10.127747 0l-8.769897 -5.063858l-5.0638733 -8.769913z" fill-rule="evenodd"/><path fill="#fff2cc" d="m85.46136 657.2048l2.557251 -4.428772l4.4288025 -2.557251l5.114502 0l4.4288025 2.557251l2.557251 4.428772l0 5.114502l-2.557251 4.428833l-4.4288025 2.557251l-5.114502 0l-4.4288025 -2.557251l-2.557251 -4.428833z" fill-rule="evenodd"/><path fill="#fff2cc" d="m319.79196 653.1646l2.557251 -4.428833l4.4288025 -2.557251l5.114502 0l4.4288025 2.557251l2.557251 4.428833l0 5.114502l-2.557251 4.428772l-4.4288025 2.557251l-5.114502 0l-4.4288025 -2.557251l-2.557251 -4.428772z" fill-rule="evenodd"/><path fill="#fff2cc" d="m222.82758 645.08417l2.557251 -4.428833l4.4288025 -2.557251l5.114502 0l4.4288025 2.557251l2.5572662 4.428833l0 5.114502l-2.5572662 4.428833l-4.4288025 2.557251l-5.114502 0l-4.4288025 -2.557251l-2.557251 -4.428833z" fill-rule="evenodd"/><path fill="#fff2cc" d="m97.5819 439.03348l2.5572586 -4.4288025l4.4288025 -2.557251l5.114502 0l4.4288025 2.557251l2.557251 4.4288025l0 5.1145325l-2.557251 4.428772l-4.4288025 2.5572815l-5.114502 0l-4.4288025 -2.5572815l-2.5572586 -4.428772z" fill-rule="evenodd"/><path fill="#fff2cc" d="m210.70703 515.7975l2.557251 -4.428833l4.4288025 -2.557251l5.114502 0l4.4288025 2.557251l2.557251 4.428833l0 5.114502l-2.557251 4.428772l-4.4288025 2.557251l-5.114502 0l-4.4288025 -2.557251l-2.557251 -4.428772z" fill-rule="evenodd"/><path fill="#fff2cc" d="m89.823006 576.15936l2.557251 -4.428833l4.4288025 -2.557251l5.114502 0l4.4288025 2.557251l2.557251 4.428833l0 5.114502l-2.557251 4.428772l-4.4288025 2.557251l-5.114502 0l-4.4288025 -2.557251l-2.557251 -4.428772z" fill-rule="evenodd"/><path fill="#fff2cc" d="m331.9125 434.9933l2.5572815 -4.4288025l4.4288025 -2.557251l5.114502 0l4.4288025 2.557251l2.557251 4.4288025l0 5.114502l-2.557251 4.4288025l-4.4288025 2.557251l-5.114502 0l-4.4288025 -2.557251l-2.5572815 -4.4288025z" fill-rule="evenodd"/><path fill="#fff2cc" d="m57.742638 491.71704l2.557251 -4.4288025l4.4288025 -2.557251l5.1145096 0l4.428795 2.557251l2.5572586 4.4288025l0 5.114502l-2.5572586 4.4288025l-4.428795 2.557251l-5.1145096 0l-4.4288025 -2.557251l-2.557251 -4.4288025z" fill-rule="evenodd"/><path fill="#fff2cc" d="m234.94814 426.91287l2.557251 -4.4288025l4.4288025 -2.557251l5.114502 0l4.4288025 2.557251l2.557251 4.4288025l0 5.114502l-2.557251 4.4288025l-4.4288025 2.557251l-5.114502 0l-4.4288025 -2.557251l-2.557251 -4.4288025z" fill-rule="evenodd"/><path fill="#fff2cc" d="m80.24941 297.70834l2.557251 -4.4288025l4.4288025 -2.557251l5.1145096 0l4.4288025 2.557251l2.557251 4.4288025l0 5.114502l-2.557251 4.4288025l-4.4288025 2.557251l-5.1145096 0l-4.4288025 -2.557251l-2.557251 -4.4288025z" fill-rule="evenodd"/><path fill="#fff2cc" d="m201.45491 216.90416l2.557251 -4.4288025l4.4288025 -2.557251l5.114502 0l4.4288025 2.557251l2.557251 4.4288025l0 5.114502l-2.557251 4.4288025l-4.4288025 2.557251l-5.114502 0l-4.4288025 -2.557251l-2.557251 -4.4288025z" fill-rule="evenodd"/><path fill="#fff2cc" d="m104.49051 208.82375l2.5572586 -4.4288025l4.428795 -2.557251l5.1145096 0l4.4288025 2.557251l2.557251 4.4288025l0 5.114502l-2.557251 4.4288025l-4.4288025 2.557251l-5.1145096 0l-4.428795 -2.557251l-2.5572586 -4.4288025z" fill-rule="evenodd"/><path fill="#fff2cc" d="m478.3042 520.9511l2.557251 -4.428772l4.4288025 -2.557251l5.114502 0l4.4288025 2.557251l2.557251 4.428772l0 5.114502l-2.557251 4.428833l-4.4288025 2.557251l-5.114502 0l-4.4288025 -2.557251l-2.557251 -4.428833z" fill-rule="evenodd"/><path fill="#fff2cc" d="m19.460733 595.676l2.557253 -4.428772l4.4288006 -2.557251l5.114506 0l4.4288006 2.557251l2.5572548 4.428772l0 5.114502l-2.5572548 4.428833l-4.4288006 2.557251l-5.114506 0l-4.4288006 -2.557251l-2.557253 -4.428833z" fill-rule="evenodd"/><path fill="#fff2cc" d="m535.4293 549.7151l2.557251 -4.428772l4.428833 -2.557251l5.114502 0l4.428772 2.557251l2.557251 4.428772l0 5.114502l-2.557251 4.428833l-4.428772 2.557251l-5.114502 0l-4.428833 -2.557251l-2.557251 -4.428833z" fill-rule="evenodd"/><path fill="#fff2cc" d="m381.3398 512.8707l2.557251 -4.428833l4.4288025 -2.557251l5.114502 0l4.4288025 2.557251l2.557251 4.428833l0 5.114502l-2.557251 4.428772l-4.4288025 2.557251l-5.114502 0l-4.4288025 -2.557251l-2.557251 -4.428772z" fill-rule="evenodd"/><path fill="#fff2cc" d="m272.25488 553.27277l2.557251 -4.428772l4.4288025 -2.557251l5.114502 0l4.4288025 2.557251l2.557251 4.428772l0 5.114563l-2.557251 4.428772l-4.4288025 2.557251l-5.114502 0l-4.4288025 -2.557251l-2.557251 -4.428772z" fill-rule="evenodd"/><path fill="#fff2cc" d="m334.46494 581.6347l2.557251 -4.428833l4.4288025 -2.557251l5.114502 0l4.4288025 2.557251l2.557251 4.428833l0 5.114502l-2.557251 4.428772l-4.4288025 2.557251l-5.114502 0l-4.4288025 -2.557251l-2.557251 -4.428772z" fill-rule="evenodd"/><path fill="#fff2cc" d="m309.5809 713.9966l2.557251 -4.428833l4.4288025 -2.557251l5.114502 0l4.4288025 2.557251l2.557251 4.428833l0 5.114502l-2.557251 4.428772l-4.4288025 2.557251l-5.114502 0l-4.4288025 -2.557251l-2.557251 -4.428772z" fill-rule="evenodd"/><path fill="#fff2cc" d="m615.6704 508.8305l2.557251 -4.4288025l4.428833 -2.557251l5.114502 0l4.428772 2.557251l2.557251 4.4288025l0 5.114502l-2.557251 4.428772l-4.428772 2.557251l-5.114502 0l-4.428833 -2.557251l-2.557251 -4.428772z" fill-rule="evenodd"/><path fill="#fff2cc" d="m490.42474 302.77982l2.557251 -4.4288025l4.4288025 -2.557251l5.114502 0l4.4288025 2.557251l2.5572815 4.4288025l0 5.114502l-2.5572815 4.4288025l-4.4288025 2.557251l-5.114502 0l-4.4288025 -2.557251l-2.557251 -4.4288025z" fill-rule="evenodd"/><path fill="#fff2cc" d="m349.3398 303.18192l2.557251 -4.4288025l4.4288025 -2.557251l5.114502 0l4.4288025 2.557251l2.557251 4.4288025l0 5.114502l-2.557251 4.4288025l-4.4288025 2.557251l-5.114502 0l-4.4288025 -2.557251l-2.557251 -4.4288025z" fill-rule="evenodd"/><path fill="#fff2cc" d="m603.54987 379.5438l2.557251 -4.4288025l4.428833 -2.557251l5.114502 0l4.428772 2.557251l2.557251 4.4288025l0 5.114502l-2.557251 4.4288025l-4.428772 2.557251l-5.114502 0l-4.428833 -2.557251l-2.557251 -4.4288025z" fill-rule="evenodd"/><path fill="#fff2cc" d="m514.66583 415.90567l2.557251 -4.4288025l4.428833 -2.557251l5.114502 0l4.428772 2.557251l2.557251 4.4288025l0 5.114502l-2.557251 4.4288025l-4.428772 2.557251l-5.114502 0l-4.428833 -2.557251l-2.557251 -4.4288025z" fill-rule="evenodd"/><path fill="#fff2cc" d="m393.46036 294.6994l2.557251 -4.4288025l4.4288025 -2.557251l5.114502 0l4.4288025 2.557251l2.557251 4.4288025l0 5.114502l-2.557251 4.4288025l-4.4288025 2.557251l-5.114502 0l-4.4288025 -2.557251l-2.557251 -4.4288025z" fill-rule="evenodd"/><path fill="#fff2cc" d="m506.58548 371.46338l2.557251 -4.4288025l4.4288025 -2.557251l5.114502 0l4.428833 2.557251l2.557251 4.4288025l0 5.114502l-2.557251 4.4288025l-4.428833 2.557251l-5.114502 0l-4.4288025 -2.557251l-2.557251 -4.4288025z" fill-rule="evenodd"/><path fill="#fff2cc" d="m417.70145 407.82526l2.557251 -4.4288025l4.4288025 -2.557251l5.1145325 0l4.4288025 2.557251l2.557251 4.4288025l0 5.114502l-2.557251 4.4288025l-4.4288025 2.557251l-5.1145325 0l-4.4288025 -2.557251l-2.557251 -4.4288025z" fill-rule="evenodd"/><path fill="#fff2cc" d="m627.79095 290.65918l2.557251 -4.4288025l4.428833 -2.557251l5.114502 0l4.428772 2.557251l2.557251 4.4288025l0 5.114502l-2.557251 4.4288025l-4.428772 2.557251l-5.114502 0l-4.428833 -2.557251l-2.557251 -4.4288025z" fill-rule="evenodd"/><path fill="#fff2cc" d="m359.96713 84.6907l2.557251 -4.4288025l4.4288025 -2.5572586l5.114502 0l4.4288025 2.5572586l2.557251 4.4288025l0 5.114502l-2.557251 4.4288025l-4.4288025 2.557251l-5.114502 0l-4.4288025 -2.557251l-2.557251 -4.4288025z" fill-rule="evenodd"/><path fill="#fff2cc" d="m250.8822 125.09279l2.557251 -4.4288025l4.4288025 -2.557251l5.114502 0l4.4288025 2.557251l2.557251 4.4288025l0 5.114502l-2.557251 4.4288025l-4.4288025 2.557251l-5.114502 0l-4.4288025 -2.557251l-2.557251 -4.4288025z" fill-rule="evenodd"/><path fill="#fff2cc" d="m352.20444 205.14479l11.098297 -19.220703l19.220734 -11.098312l22.196594 0l19.220703 11.098312l11.098328 19.220703l0 22.19661l-11.098328 19.220718l-19.220703 11.098312l-22.196594 0l-19.220734 -11.098312l-11.098297 -19.220718z" fill-rule="evenodd"/><path fill="#fff2cc" d="m617.2977 183.2384l2.557251 -4.428787l4.428833 -2.5572662l5.114502 0l4.428772 2.5572662l2.557251 4.428787l0 5.114517l-2.557251 4.4288025l-4.428772 2.557251l-5.114502 0l-4.428833 -2.557251l-2.557251 -4.4288025z" fill-rule="evenodd"/><path fill="#fff2cc" d="m263.00275 76.610275l2.557251 -4.4288025l4.4288025 -2.557251l5.114502 0l4.4288025 2.557251l2.557251 4.4288025l0 5.114502l-2.557251 4.4288025l-4.4288025 2.557251l-5.114502 0l-4.4288025 -2.557251l-2.557251 -4.4288025z" fill-rule="evenodd"/><path fill="#fff2cc" d="m153.9178 117.01237l2.557251 -4.4288025l4.4288025 -2.557251l5.114502 0l4.4288025 2.557251l2.5572662 4.4288025l0 5.1145096l-2.5572662 4.428795l-4.4288025 2.5572586l-5.114502 0l-4.4288025 -2.5572586l-2.557251 -4.428795z" fill-rule="evenodd"/><path fill="#fff2cc" d="m376.12787 153.37425l2.557251 -4.4288025l4.4288025 -2.557251l5.114502 0l4.4288025 2.557251l2.557251 4.4288025l0 5.114502l-2.557251 4.4288025l-4.4288025 2.557251l-5.114502 0l-4.4288025 -2.557251l-2.557251 -4.4288025z" fill-rule="evenodd"/><path fill="#fff2cc" d="m287.24384 189.73613l2.557251 -4.428787l4.4288025 -2.5572662l5.114502 0l4.4288025 2.5572662l2.557251 4.428787l0 5.114517l-2.557251 4.4288025l-4.4288025 2.557251l-5.114502 0l-4.4288025 -2.557251l-2.557251 -4.4288025z" fill-rule="evenodd"/><path fill="#fff2cc" d="m541.4254 171.55519l2.557251 -4.4288025l4.428833 -2.557251l5.114502 0l4.428772 2.557251l2.557251 4.4288025l0 5.114502l-2.557251 4.4288025l-4.428772 2.557251l-5.114502 0l-4.428833 -2.557251l-2.557251 -4.4288025z" fill-rule="evenodd"/><path fill="#fff2cc" d="m124.69143 158.87784l2.557251 -4.4288025l4.428795 -2.557251l5.114517 0l4.4288025 2.557251l2.557251 4.4288025l0 5.114517l-2.557251 4.4288025l-4.4288025 2.557251l-5.114517 0l-4.428795 -2.557251l-2.557251 -4.4288025z" fill-rule="evenodd"/><path fill="#fff2cc" d="m27.727034 150.79742l2.557253 -4.4288025l4.4288025 -2.557251l5.114506 0l4.4288025 2.557251l2.557251 4.4288025l0 5.114502l-2.557251 4.4288025l-4.4288025 2.557251l-5.114506 0l-4.4288025 -2.557251l-2.557253 -4.4288025z" fill-rule="evenodd"/><path fill="#fff2cc" d="m174.11871 67.066475l2.557251 -4.4288025l4.4288025 -2.5572548l5.114517 0l4.4288025 2.5572548l2.557251 4.4288025l0 5.114502l-2.557251 4.4288025l-4.4288025 2.557251l-5.114517 0l-4.4288025 -2.557251l-2.557251 -4.4288025z" fill-rule="evenodd"/><path fill="#fff2cc" d="m77.15433 58.986053l2.557251 -4.4288025l4.4288025 -2.557251l5.114502 0l4.4288025 2.557251l2.557251 4.4288025l0 5.1145096l-2.557251 4.428795l-4.4288025 2.5572586l-5.114502 0l-4.4288025 -2.5572586l-2.557251 -4.428795z" fill-rule="evenodd"/><path fill="#fff2cc" d="m210.48036 131.70982l2.557251 -4.4288025l4.4288025 -2.557251l5.114517 0l4.428787 2.557251l2.5572662 4.4288025l0 5.114502l-2.5572662 4.4288025l-4.428787 2.557251l-5.114517 0l-4.4288025 -2.557251l-2.557251 -4.4288025z" fill-rule="evenodd"/><path fill="#fff2cc" d="m589.2945 408.17654l2.557251 -4.4288025l4.428833 -2.557251l5.114502 0l4.428772 2.557251l2.557251 4.4288025l0 5.114502l-2.557251 4.4288025l-4.428772 2.557251l-5.114502 0l-4.428833 -2.557251l-2.557251 -4.4288025z" fill-rule="evenodd"/><path fill="#fff2cc" d="m823.6251 404.13632l2.557251 -4.4288025l4.428772 -2.557251l5.114563 0l4.428772 2.557251l2.557251 4.4288025l0 5.114502l-2.557251 4.4288025l-4.428772 2.557251l-5.114563 0l-4.428772 -2.557251l-2.557251 -4.4288025z" fill-rule="evenodd"/><path fill="#fff2cc" d="m605.45526 476.8601l2.557251 -4.4288025l4.428772 -2.557251l5.114502 0l4.428833 2.557251l2.557251 4.4288025l0 5.114502l-2.557251 4.4288025l-4.428833 2.557251l-5.114502 0l-4.428772 -2.557251l-2.557251 -4.4288025z" fill-rule="evenodd"/><path fill="#fff2cc" d="m726.6607 396.0559l2.557251 -4.4288025l4.428833 -2.557251l5.114502 0l4.428772 2.557251l2.557251 4.4288025l0 5.114502l-2.557251 4.4288025l-4.428772 2.557251l-5.114502 0l-4.428833 -2.557251l-2.557251 -4.4288025z" fill-rule="evenodd"/><path fill="#fff2cc" d="m571.96204 266.85138l2.557251 -4.4288025l4.428772 -2.557251l5.114502 0l4.428833 2.557251l2.557251 4.4288025l0 5.114502l-2.557251 4.4288025l-4.428833 2.557251l-5.114502 0l-4.428772 -2.557251l-2.557251 -4.4288025z" fill-rule="evenodd"/><path fill="#fff2cc" d="m693.1675 186.0472l2.557251 -4.428787l4.428833 -2.5572662l5.114502 0l4.428772 2.5572662l2.557251 4.428787l0 5.114517l-2.557251 4.4288025l-4.428772 2.557251l-5.114502 0l-4.428833 -2.557251l-2.557251 -4.4288025z" fill-rule="evenodd"/><path fill="#fff2cc" d="m737.2596 285.03232l2.557251 -4.4288025l4.428772 -2.557251l5.114563 0l4.428772 2.557251l2.557251 4.4288025l0 5.1145325l-2.557251 4.4288025l-4.428772 2.557251l-5.114563 0l-4.428772 -2.557251l-2.557251 -4.4288025z" fill-rule="evenodd"/><path fill="#fff2cc" d="m749.3801 236.54982l2.557251 -4.4288025l4.428833 -2.557251l5.114502 0l4.428772 2.557251l2.557251 4.4288025l0 5.114502l-2.557251 4.4288025l-4.428772 2.557251l-5.114502 0l-4.428833 -2.557251l-2.557251 -4.4288025z" fill-rule="evenodd"/><path fill="#fff2cc" d="m640.29517 276.9519l2.557251 -4.4288025l4.428833 -2.557251l5.114502 0l4.428772 2.557251l2.557251 4.4288025l0 5.114502l-2.557251 4.4288025l-4.428772 2.557251l-5.114502 0l-4.428833 -2.557251l-2.557251 -4.4288025z" fill-rule="evenodd"/><path fill="#fff2cc" d="m773.6212 349.6757l2.557251 -4.4288025l4.428833 -2.557251l5.114502 0l4.428772 2.557251l2.557251 4.4288025l0 5.114502l-2.557251 4.4288025l-4.428772 2.557251l-5.114502 0l-4.428833 -2.557251l-2.557251 -4.4288025z" fill-rule="evenodd"/><path fill="#fff2cc" d="m1083.142 566.85815l2.557251 -4.428833l4.428711 -2.557251l5.114502 0l4.428833 2.557251l2.557251 4.428833l0 5.114502l-2.557251 4.428772l-4.428833 2.557251l-5.114502 0l-4.428711 -2.557251l-2.557251 -4.428772z" fill-rule="evenodd"/><path fill="#fff2cc" d="m1107.383 477.97354l2.557251 -4.4288025l4.428833 -2.557251l5.114502 0l4.428711 2.557251l2.557251 4.4288025l0 5.114502l-2.557251 4.4288025l-4.428711 2.557251l-5.114502 0l-4.428833 -2.557251l-2.557251 -4.4288025z" fill-rule="evenodd"/><path fill="#fff2cc" d="m982.1373 271.92285l2.557251 -4.4288025l4.428833 -2.557251l5.114502 0l4.428772 2.557251l2.557251 4.4288025l0 5.114502l-2.557251 4.4288025l-4.428772 2.557251l-5.114502 0l-4.428833 -2.557251l-2.557251 -4.4288025z" fill-rule="evenodd"/><path fill="#fff2cc" d="m1095.2625 348.68683l2.557251 -4.4288025l4.428833 -2.557251l5.114502 0l4.428833 2.557251l2.557251 4.4288025l0 5.114502l-2.557251 4.4288025l-4.428833 2.557251l-5.114502 0l-4.428833 -2.557251l-2.557251 -4.4288025z" fill-rule="evenodd"/><path fill="#fff2cc" d="m1006.3785 385.04874l2.557251 -4.4288025l4.428772 -2.5572815l5.114502 0l4.428833 2.5572815l2.557251 4.4288025l0 5.114502l-2.557251 4.4288025l-4.428833 2.557251l-5.114502 0l-4.428772 -2.557251l-2.557251 -4.4288025z" fill-rule="evenodd"/><path fill="#fff2cc" d="m885.173 263.84244l2.557251 -4.4288025l4.428772 -2.557251l5.114502 0l4.428833 2.557251l2.557251 4.4288025l0 5.114502l-2.557251 4.4288025l-4.428833 2.557251l-5.114502 0l-4.428772 -2.557251l-2.557251 -4.4288025z" fill-rule="evenodd"/><path fill="#fff2cc" d="m776.088 304.24454l2.557251 -4.4288025l4.428833 -2.557251l5.114502 0l4.428772 2.557251l2.557251 4.4288025l0 5.114502l-2.557251 4.4288025l-4.428772 2.557251l-5.114502 0l-4.428833 -2.557251l-2.557251 -4.4288025z" fill-rule="evenodd"/><path fill="#fff2cc" d="m998.2981 340.6064l2.557251 -4.4288025l4.428772 -2.557251l5.114502 0l4.428833 2.557251l2.557251 4.4288025l0 5.114502l-2.557251 4.4288025l-4.428833 2.557251l-5.114502 0l-4.428772 -2.557251l-2.557251 -4.4288025z" fill-rule="evenodd"/><path fill="#fff2cc" d="m909.41406 376.9683l2.557251 -4.4288025l4.428772 -2.557251l5.114563 0l4.428772 2.557251l2.557251 4.4288025l0 5.114502l-2.557251 4.4288025l-4.428772 2.557251l-5.114563 0l-4.428772 -2.557251l-2.557251 -4.4288025z" fill-rule="evenodd"/><path fill="#fff2cc" d="m851.67975 53.833736l2.557251 -4.4287987l4.428772 -2.5572548l5.114502 0l4.428833 2.5572548l2.557251 4.4287987l0 5.114506l-2.557251 4.4288025l-4.428833 2.557251l-5.114502 0l-4.428772 -2.557251l-2.557251 -4.4288025z" fill-rule="evenodd"/><path fill="#fff2cc" d="m964.8049 130.59772l2.557251 -4.4288025l4.428772 -2.557251l5.114502 0l4.428833 2.557251l2.557251 4.4288025l0 5.114502l-2.557251 4.4288025l-4.428833 2.557251l-5.114502 0l-4.428772 -2.557251l-2.557251 -4.4288025z" fill-rule="evenodd"/><path fill="#fff2cc" d="m875.92084 166.9596l2.557251 -4.4288025l4.428772 -2.557251l5.114563 0l4.428772 2.557251l2.557251 4.4288025l0 5.114517l-2.557251 4.428787l-4.428772 2.5572662l-5.114563 0l-4.428772 -2.5572662l-2.557251 -4.428787z" fill-rule="evenodd"/><path fill="#fff2cc" d="m754.71533 45.75332l2.557251 -4.4288025l4.428833 -2.557251l5.114502 0l4.428772 2.557251l2.557251 4.4288025l0 5.114506l-2.557251 4.4288025l-4.428772 2.557251l-5.114502 0l-4.428833 -2.557251l-2.557251 -4.4288025z" fill-rule="evenodd"/><path fill="#fff2cc" d="m867.84045 122.517296l2.557251 -4.4288025l4.428833 -2.557251l5.114502 0l4.428772 2.557251l2.557251 4.4288025l0 5.1145096l-2.557251 4.4288025l-4.428772 2.557251l-5.114502 0l-4.428833 -2.557251l-2.557251 -4.4288025z" fill-rule="evenodd"/><path fill="#fff2cc" d="m778.9564 158.87918l2.557251 -4.4288025l4.428833 -2.557251l5.114502 0l4.428772 2.557251l2.557251 4.4288025l0 5.114502l-2.557251 4.4288025l-4.428772 2.557251l-5.114502 0l-4.428833 -2.557251l-2.557251 -4.4288025z" fill-rule="evenodd"/><path fill="#fff2cc" d="m989.04596 41.713108l2.557251 -4.4287987l4.428833 -2.5572548l5.114502 0l4.428772 2.5572548l2.557251 4.4287987l0 5.114506l-2.557251 4.4288025l-4.428772 2.5572548l-5.114502 0l-4.428833 -2.5572548l-2.557251 -4.4288025z" fill-rule="evenodd"/><path fill="#fff2cc" d="m1130.1024 148.77866l2.557251 -4.4288025l4.428833 -2.557251l5.114502 0l4.428833 2.557251l2.557251 4.4288025l0 5.114502l-2.557251 4.4288025l-4.428833 2.557251l-5.114502 0l-4.428833 -2.557251l-2.557251 -4.4288025z" fill-rule="evenodd"/><path fill="#fff2cc" d="m1033.1381 140.69824l2.557251 -4.4288025l4.428833 -2.557251l5.114502 0l4.428711 2.557251l2.557251 4.4288025l0 5.114502l-2.557251 4.4288025l-4.428711 2.557251l-5.114502 0l-4.428833 -2.557251l-2.557251 -4.4288025z" fill-rule="evenodd"/><path fill="#fff2cc" d="m519.43964 119.94047l2.557251 -4.4288025l4.428772 -2.557251l5.114563 0l4.428772 2.557251l2.557251 4.4288025l0 5.1145096l-2.557251 4.4288025l-4.428772 2.557251l-5.114563 0l-4.428772 -2.557251l-2.557251 -4.4288025z" fill-rule="evenodd"/><path fill="#fff2cc" d="m665.8313 36.20952l2.557251 -4.4288025l4.428833 -2.557253l5.114502 0l4.428772 2.557253l2.557251 4.4288025l0 5.114506l-2.557251 4.4287987l-4.428772 2.5572548l-5.114502 0l-4.428833 -2.5572548l-2.557251 -4.4287987z" fill-rule="evenodd"/><path fill="#fff2cc" d="m568.86694 28.129099l2.557251 -4.4288006l4.428772 -2.557253l5.114502 0l4.428833 2.557253l2.557251 4.4288006l0 5.114504l-2.557251 4.4288025l-4.428833 2.5572548l-5.114502 0l-4.428772 -2.5572548l-2.557251 -4.4288025z" fill-rule="evenodd"/><path fill="#fff2cc" d="m1212.6528 561.9218l2.557251 -4.428833l4.428833 -2.557251l5.114502 0l4.428833 2.557251l2.557251 4.428833l0 5.114502l-2.557251 4.428772l-4.428833 2.557251l-5.114502 0l-4.428833 -2.557251l-2.557251 -4.428772z" fill-rule="evenodd"/><path fill="#fff2cc" d="m1115.6885 553.8414l2.557251 -4.428772l4.428833 -2.557251l5.114502 0l4.428711 2.557251l2.557251 4.428772l0 5.114502l-2.557251 4.428833l-4.428711 2.557251l-5.114502 0l-4.428833 -2.557251l-2.557251 -4.428833z" fill-rule="evenodd"/><path fill="#fff2cc" d="m990.4428 347.7907l2.557251 -4.4288025l4.428772 -2.557251l5.114502 0l4.428833 2.557251l2.557251 4.4288025l0 5.114502l-2.557251 4.4288025l-4.428833 2.557251l-5.114502 0l-4.428772 -2.557251l-2.557251 -4.4288025z" fill-rule="evenodd"/><path fill="#fff2cc" d="m1103.5679 424.5547l2.557251 -4.4288025l4.428833 -2.557251l5.114502 0l4.428833 2.557251l2.557251 4.4288025l0 5.114502l-2.557251 4.4288025l-4.428833 2.557251l-5.114502 0l-4.428833 -2.557251l-2.557251 -4.4288025z" fill-rule="evenodd"/><path fill="#fff2cc" d="m1014.6839 460.91656l2.557251 -4.4288025l4.428772 -2.557251l5.114502 0l4.428833 2.557251l2.557251 4.4288025l0 5.114502l-2.557251 4.4288025l-4.428833 2.557251l-5.114502 0l-4.428772 -2.557251l-2.557251 -4.4288025z" fill-rule="evenodd"/><path fill="#fff2cc" d="m1224.7734 343.7505l2.557251 -4.4288025l4.428833 -2.557251l5.114502 0l4.428711 2.557251l2.557251 4.4288025l0 5.114502l-2.557251 4.4288025l-4.428711 2.557251l-5.114502 0l-4.428833 -2.557251l-2.557251 -4.4288025z" fill-rule="evenodd"/><path fill="#fff2cc" d="m1006.6035 416.47427l2.557251 -4.4288025l4.428833 -2.557251l5.114502 0l4.428772 2.557251l2.557312 4.4288025l0 5.114502l-2.557312 4.4288025l-4.428772 2.557251l-5.114502 0l-4.428833 -2.557251l-2.557251 -4.4288025z" fill-rule="evenodd"/><path fill="#fff2cc" d="m1127.809 335.67007l2.557373 -4.4288025l4.428711 -2.557251l5.114502 0l4.428833 2.557251l2.557251 4.4288025l0 5.114502l-2.557251 4.4288025l-4.428833 2.557251l-5.114502 0l-4.428711 -2.557251l-2.557373 -4.4288025z" fill-rule="evenodd"/><path fill="#fff2cc" d="m973.1103 206.46556l2.557251 -4.4288025l4.428833 -2.557251l5.114502 0l4.428772 2.557251l2.557251 4.4288025l0 5.114502l-2.557251 4.4288025l-4.428772 2.557251l-5.114502 0l-4.428833 -2.557251l-2.557251 -4.4288025z" fill-rule="evenodd"/><path fill="#fff2cc" d="m1094.3158 125.66138l2.557251 -4.4288025l4.428833 -2.557251l5.114502 0l4.428833 2.557251l2.557251 4.4288025l0 5.114502l-2.557251 4.4288025l-4.428833 2.557251l-5.114502 0l-4.428833 -2.557251l-2.557251 -4.4288025z" fill-rule="evenodd"/><path fill="#fff2cc" d="m1041.4435 216.56609l2.557251 -4.4288025l4.428833 -2.557251l5.114502 0l4.428833 2.557251l2.557251 4.4288025l0 5.114502l-2.557251 4.4288025l-4.428833 2.557251l-5.114502 0l-4.428833 -2.557251l-2.557251 -4.4288025z" fill-rule="evenodd"/><path fill="#fff2cc" d="m1174.7695 289.28986l2.557251 -4.4288025l4.428833 -2.557251l5.114502 0l4.428711 2.557251l2.557251 4.4288025l0 5.114502l-2.557251 4.4288025l-4.428711 2.557251l-5.114502 0l-4.428833 -2.557251l-2.557251 -4.4288025z" fill-rule="evenodd"/><path fill="#fff2cc" d="m1371.165 429.70834l2.557251 -4.4288025l4.428833 -2.557251l5.114502 0l4.428833 2.557251l2.557251 4.4288025l0 5.114502l-2.557251 4.4288025l-4.428833 2.557251l-5.114502 0l-4.428833 -2.557251l-2.557251 -4.4288025z" fill-rule="evenodd"/><path fill="#fff2cc" d="m1262.0802 470.11044l2.557251 -4.4288025l4.428711 -2.557251l5.114502 0l4.428833 2.557251l2.557251 4.4288025l0 5.114502l-2.557251 4.4288025l-4.428833 2.557251l-5.114502 0l-4.428711 -2.557251l-2.557251 -4.4288025z" fill-rule="evenodd"/><path fill="#fff2cc" d="m1274.2007 421.62793l2.557251 -4.4288025l4.428833 -2.557251l5.114502 0l4.428833 2.557251l2.557251 4.4288025l0 5.114502l-2.557251 4.4288025l-4.428833 2.557251l-5.114502 0l-4.428833 -2.557251l-2.557251 -4.4288025z" fill-rule="evenodd"/><path fill="#fff2cc" d="m1165.1157 462.03l2.557251 -4.4288025l4.428833 -2.557251l5.114502 0l4.428833 2.557251l2.557251 4.4288025l0 5.1145325l-2.557251 4.4288025l-4.428833 2.557251l-5.114502 0l-4.428833 -2.557251l-2.557251 -4.4288025z" fill-rule="evenodd"/><path fill="#fff2cc" d="m1298.4418 534.7538l2.557251 -4.428833l4.428833 -2.557251l5.114502 0l4.428833 2.557251l2.557251 4.428833l0 5.114502l-2.557251 4.428772l-4.428833 2.557312l-5.114502 0l-4.428833 -2.557312l-2.557251 -4.428772z" fill-rule="evenodd"/><path fill="#fff2cc" d="m1383.2856 211.53703l2.557251 -4.4288025l4.428833 -2.557251l5.114502 0l4.428833 2.557251l2.557251 4.4288025l0 5.114502l-2.557251 4.4288025l-4.428833 2.557251l-5.114502 0l-4.428833 -2.557251l-2.557251 -4.4288025z" fill-rule="evenodd"/><path fill="#fff2cc" d="m1274.2007 251.93913l2.557251 -4.4288025l4.428833 -2.557251l5.114502 0l4.428833 2.557251l2.557251 4.4288025l0 5.1144867l-2.557251 4.4288025l-4.428833 2.557251l-5.114502 0l-4.428833 -2.557251l-2.557251 -4.4288025z" fill-rule="evenodd"/><path fill="#fff2cc" d="m1407.5267 324.6629l2.557251 -4.4288025l4.428833 -2.557251l5.114502 0l4.428833 2.557251l2.557251 4.4288025l0 5.114502l-2.557251 4.4288025l-4.428833 2.557251l-5.114502 0l-4.428833 -2.557251l-2.557251 -4.4288025z" fill-rule="evenodd"/><path fill="#fff2cc" d="m1286.3213 203.45662l2.557251 -4.4288025l4.428711 -2.557251l5.114502 0l4.428833 2.557251l2.557251 4.4288025l0 5.114502l-2.557251 4.4288025l-4.428833 2.557251l-5.114502 0l-4.428711 -2.557251l-2.557251 -4.4288025z" fill-rule="evenodd"/><path fill="#fff2cc" d="m1399.4464 280.22058l2.557251 -4.4288025l4.428711 -2.557251l5.114624 0l4.428711 2.557251l2.557251 4.4288025l0 5.114502l-2.557251 4.4288025l-4.428711 2.557251l-5.114624 0l-4.428711 -2.557251l-2.557251 -4.4288025z" fill-rule="evenodd"/><path fill="#fff2cc" d="m1310.5624 316.5825l2.557251 -4.4288025l4.428833 -2.557251l5.114502 0l4.428711 2.557251l2.557251 4.4288025l0 5.114502l-2.557251 4.4288025l-4.428711 2.557251l-5.114502 0l-4.428833 -2.557251l-2.557251 -4.4288025z" fill-rule="evenodd"/><path fill="#fff2cc" d="m1365.9531 70.21189l2.557251 -4.4288025l4.428833 -2.5572548l5.114502 0l4.428833 2.5572548l2.557251 4.4288025l0 5.114502l-2.557251 4.4288025l-4.428833 2.557251l-5.114502 0l-4.428833 -2.557251l-2.557251 -4.4288025z" fill-rule="evenodd"/><path fill="#fff2cc" d="m1277.0691 106.57378l2.557251 -4.4288025l4.428833 -2.5572586l5.114502 0l4.428833 2.5572586l2.557251 4.4288025l0 5.114502l-2.557251 4.4288025l-4.428833 2.557251l-5.114502 0l-4.428833 -2.557251l-2.557251 -4.4288025z" fill-rule="evenodd"/><path fill="#fff2cc" d="m1268.9888 62.13147l2.557251 -4.4288025l4.428833 -2.557251l5.114502 0l4.428711 2.557251l2.557251 4.4288025l0 5.1145096l-2.557251 4.428795l-4.428711 2.5572586l-5.114502 0l-4.428833 -2.5572586l-2.557251 -4.428795z" fill-rule="evenodd"/><path fill="#fff2cc" d="m1233.5006 1246.6948l2.557251 -4.428833l4.428833 -2.557251l5.114502 0l4.428833 2.557251l2.557251 4.428833l0 5.114502l-2.557251 4.428711l-4.428833 2.557251l-5.114502 0l-4.428833 -2.557251l-2.557251 -4.428711z" fill-rule="evenodd"/><path fill="#fff2cc" d="m1089.9581 947.2385l2.557251 -4.428772l4.428711 -2.557251l5.114502 0l4.428833 2.557251l2.557251 4.428772l0 5.114502l-2.557251 4.428833l-4.428833 2.557251l-5.114502 0l-4.428711 -2.557251l-2.557251 -4.428833z" fill-rule="evenodd"/><path fill="#fff2cc" d="m1115.1636 810.4343l2.557251 -4.428772l4.428833 -2.557251l5.114502 0l4.428711 2.557251l2.557251 4.428772l0 5.114502l-2.557251 4.428833l-4.428711 2.557251l-5.114502 0l-4.428833 -2.557251l-2.557251 -4.428833z" fill-rule="evenodd"/><path fill="#fff2cc" d="m1018.19916 802.35394l2.557251 -4.428833l4.428772 -2.557251l5.114502 0l4.428833 2.557251l2.557251 4.428833l0 5.114502l-2.557251 4.428772l-4.428833 2.557251l-5.114502 0l-4.428772 -2.557251l-2.557251 -4.428772z" fill-rule="evenodd"/><path fill="#fff2cc" d="m1171.3762 860.93695l2.557251 -4.428772l4.428833 -2.557251l5.114502 0l4.428711 2.557251l2.557251 4.428772l0 5.114502l-2.557251 4.428833l-4.428711 2.557251l-5.114502 0l-4.428833 -2.557251l-2.557251 -4.428833z" fill-rule="evenodd"/><path fill="#fff2cc" d="m1392.0128 1114.4813l2.557251 -4.428833l4.428833 -2.557251l5.114502 0l4.428833 2.557251l2.557251 4.428833l0 5.114502l-2.557251 4.428833l-4.428833 2.557251l-5.114502 0l-4.428833 -2.557251l-2.557251 -4.428833z" fill-rule="evenodd"/><path fill="#fff2cc" d="m1408.1736 1183.1649l2.557251 -4.428833l4.428833 -2.557251l5.114502 0l4.428833 2.557251l2.557251 4.428833l0 5.114502l-2.557251 4.428711l-4.428833 2.557251l-5.114502 0l-4.428833 -2.557251l-2.557251 -4.428711z" fill-rule="evenodd"/><path fill="#fff2cc" d="m1404.1334 896.31l2.557251 -4.428772l4.428833 -2.557251l5.114502 0l4.428711 2.557251l2.557251 4.428772l0 5.114502l-2.557251 4.428833l-4.428711 2.557251l-5.114502 0l-4.428833 -2.557251l-2.557251 -4.428833z" fill-rule="evenodd"/><path fill="#fff2cc" d="m1307.1691 888.22955l2.557251 -4.428772l4.428711 -2.557251l5.114502 0l4.428833 2.557251l2.557251 4.428772l0 5.114563l-2.557251 4.428772l-4.428833 2.557251l-5.114502 0l-4.428711 -2.557251l-2.557251 -4.428772z" fill-rule="evenodd"/><path fill="#fff2cc" d="m1331.4102 1001.35547l2.557251 -4.428833l4.428711 -2.557251l5.114624 0l4.428711 2.557251l2.557251 4.428833l0 5.114502l-2.557251 4.428772l-4.428711 2.557251l-5.114624 0l-4.428711 -2.557251l-2.557251 -4.428772z" fill-rule="evenodd"/><path fill="#fff2cc" d="m1273.6758 678.2209l2.557251 -4.428833l4.428833 -2.557251l5.114502 0l4.428833 2.557251l2.557251 4.428833l0 5.114502l-2.557251 4.428772l-4.428833 2.557251l-5.114502 0l-4.428833 -2.557251l-2.557251 -4.428772z" fill-rule="evenodd"/><path fill="#fff2cc" d="m1386.8009 754.98486l2.557251 -4.428833l4.428833 -2.557251l5.114502 0l4.428833 2.557251l2.557251 4.428833l0 5.114502l-2.557251 4.428772l-4.428833 2.557251l-5.114502 0l-4.428833 -2.557251l-2.557251 -4.428772z" fill-rule="evenodd"/><path fill="#fff2cc" d="m1297.9169 791.34674l2.557251 -4.428833l4.428833 -2.557251l5.114502 0l4.428833 2.557251l2.557251 4.428833l0 5.114502l-2.557251 4.428833l-4.428833 2.557251l-5.114502 0l-4.428833 -2.557251l-2.557251 -4.428833z" fill-rule="evenodd"/><path fill="#fff2cc" d="m1067.6265 710.54254l2.557251 -4.428772l4.428833 -2.557251l5.114502 0l4.428833 2.557251l2.557251 4.428772l0 5.114502l-2.557251 4.428833l-4.428833 2.557251l-5.114502 0l-4.428833 -2.557251l-2.557251 -4.428833z" fill-rule="evenodd"/><path fill="#fff2cc" d="m1289.8365 746.9044l2.557251 -4.428772l4.428833 -2.557251l5.114502 0l4.428711 2.557251l2.557251 4.428772l0 5.114502l-2.557251 4.428833l-4.428711 2.557251l-5.114502 0l-4.428833 -2.557251l-2.557251 -4.428833z" fill-rule="evenodd"/><path fill="#fff2cc" d="m1200.9525 783.2663l2.557251 -4.428772l4.428833 -2.557251l5.114502 0l4.428711 2.557251l2.557251 4.428772l0 5.114502l-2.557251 4.428833l-4.428711 2.557251l-5.114502 0l-4.428833 -2.557251l-2.557251 -4.428833z" fill-rule="evenodd"/><path fill="#fff2cc" d="m1411.042 666.1002l2.557251 -4.428772l4.428833 -2.557251l5.114502 0l4.428833 2.557251l2.557251 4.428772l0 5.114563l-2.557251 4.428772l-4.428833 2.557251l-5.114502 0l-4.428833 -2.557251l-2.557251 -4.428772z" fill-rule="evenodd"/><path fill="#fff2cc" d="m1038.4001 752.408l2.557251 -4.428772l4.428711 -2.557251l5.114502 0l4.428833 2.557251l2.557251 4.428772l0 5.114502l-2.557251 4.428833l-4.428833 2.557251l-5.114502 0l-4.428711 -2.557251l-2.557251 -4.428833z" fill-rule="evenodd"/><path fill="#fff2cc" d="m941.43567 744.32764l2.557251 -4.428833l4.428833 -2.557251l5.114502 0l4.428772 2.557251l2.557312 4.428833l0 5.114502l-2.557312 4.428772l-4.428772 2.557251l-5.114502 0l-4.428833 -2.557251l-2.557251 -4.428772z" fill-rule="evenodd"/><path fill="#fff2cc" d="m1087.8274 660.5967l2.557251 -4.428833l4.428833 -2.557251l5.114502 0l4.428711 2.557251l2.557251 4.428833l0 5.114502l-2.557251 4.428772l-4.428711 2.557251l-5.114502 0l-4.428833 -2.557251l-2.557251 -4.428772z" fill-rule="evenodd"/><path fill="#fff2cc" d="m1124.1891 725.24l2.557251 -4.428772l4.428711 -2.557251l5.114502 0l4.428833 2.557251l2.557251 4.428772l0 5.114502l-2.557251 4.428833l-4.428833 2.557251l-5.114502 0l-4.428711 -2.557251l-2.557251 -4.428833z" fill-rule="evenodd"/><path fill="#fff2cc" d="m217.42976 1349.4297l2.557251 -4.428833l4.4288025 -2.557251l5.114502 0l4.4288025 2.557251l2.5572662 4.428833l0 5.114502l-2.5572662 4.428833l-4.4288025 2.557251l-5.114502 0l-4.4288025 -2.557251l-2.557251 -4.428833z" fill-rule="evenodd"/><path fill="#fff2cc" d="m120.46538 1341.3492l2.557251 -4.428833l4.4288025 -2.557251l5.114502 0l4.4288025 2.557251l2.557251 4.428833l0 5.114502l-2.557251 4.428833l-4.4288025 2.557251l-5.114502 0l-4.4288025 -2.557251l-2.557251 -4.428833z" fill-rule="evenodd"/><path fill="#fff2cc" d="m108.344826 1212.0625l2.557251 -4.428711l4.4288025 -2.557251l5.114502 0l4.4288025 2.557251l2.5572586 4.428711l0 5.114624l-2.5572586 4.428711l-4.4288025 2.557251l-5.114502 0l-4.4288025 -2.557251l-2.557251 -4.428711z" fill-rule="evenodd"/><path fill="#fff2cc" d="m19.460798 1248.4244l2.557253 -4.428833l4.4288006 -2.557251l5.114506 0l4.4288006 2.557251l2.5572548 4.428833l0 5.114502l-2.5572548 4.428833l-4.4288006 2.557251l-5.114506 0l-4.4288006 -2.557251l-2.557253 -4.428833z" fill-rule="evenodd"/><path fill="#fff2cc" d="m229.55032 1131.2584l2.557251 -4.428833l4.4288025 -2.557251l5.114502 0l4.4288025 2.557251l2.557251 4.428833l0 5.114502l-2.557251 4.428711l-4.4288025 2.557251l-5.114502 0l-4.4288025 -2.557251l-2.557251 -4.428711z" fill-rule="evenodd"/><path fill="#fff2cc" d="m11.380432 1203.9822l2.557253 -4.428833l4.4288025 -2.557251l5.114506 0l4.4288006 2.557251l2.557253 4.428833l0 5.114502l-2.557253 4.428711l-4.4288006 2.557251l-5.114506 0l-4.4288025 -2.557251l-2.557253 -4.428711z" fill-rule="evenodd"/><path fill="#fff2cc" d="m132.58592 1123.178l2.557251 -4.428833l4.4288025 -2.557251l5.114502 0l4.4288025 2.557251l2.557251 4.428833l0 5.114502l-2.557251 4.428833l-4.4288025 2.557251l-5.114502 0l-4.4288025 -2.557251l-2.557251 -4.428833z" fill-rule="evenodd"/><path fill="#fff2cc" d="m99.0927 913.16925l2.5572586 -4.428772l4.428795 -2.557312l5.1145096 0l4.4288025 2.557312l2.557251 4.428772l0 5.114502l-2.557251 4.428833l-4.4288025 2.557251l-5.1145096 0l-4.428795 -2.557251l-2.5572586 -4.428833z" fill-rule="evenodd"/><path fill="#fff2cc" d="m143.18477 1012.15436l2.5572662 -4.428772l4.4288025 -2.557251l5.114502 0l4.4288025 2.557251l2.557251 4.428772l0 5.114502l-2.557251 4.428833l-4.4288025 2.55719l-5.114502 0l-4.4288025 -2.55719l-2.5572662 -4.428833z" fill-rule="evenodd"/><path fill="#fff2cc" d="m155.30533 963.6719l2.557251 -4.428833l4.4288025 -2.557251l5.114502 0l4.4288025 2.557251l2.557251 4.428833l0 5.114502l-2.557251 4.428772l-4.4288025 2.557251l-5.114502 0l-4.4288025 -2.557251l-2.557251 -4.428772z" fill-rule="evenodd"/><path fill="#fff2cc" d="m46.220383 1004.074l2.5572548 -4.428833l4.4287987 -2.557251l5.114506 0l4.4288025 2.557251l2.5572548 4.428833l0 5.114502l-2.5572548 4.428772l-4.4288025 2.557251l-5.114506 0l-4.4287987 -2.557251l-2.5572548 -4.428772z" fill-rule="evenodd"/><path fill="#fff2cc" d="m179.54642 1076.7977l2.5572662 -4.428833l4.428787 -2.557251l5.114517 0l4.4288025 2.557251l2.557251 4.428833l0 5.114502l-2.557251 4.428833l-4.4288025 2.557251l-5.114517 0l-4.428787 -2.557251l-2.5572662 -4.428833z" fill-rule="evenodd"/><path fill="#fff2cc" d="m335.942 1217.2162l2.5572815 -4.428833l4.428772 -2.557251l5.1145325 0l4.4288025 2.557251l2.557251 4.428833l0 5.114502l-2.557251 4.428833l-4.4288025 2.557251l-5.1145325 0l-4.428772 -2.557251l-2.5572815 -4.428833z" fill-rule="evenodd"/><path fill="#fff2cc" d="m266.85706 1257.6183l2.557251 -4.428833l4.4288025 -2.557251l5.114502 0l4.4288025 2.557251l2.557251 4.428833l0 5.114502l-2.557251 4.428833l-4.4288025 2.557251l-5.114502 0l-4.4288025 -2.557251l-2.557251 -4.428833z" fill-rule="evenodd"/><path fill="#fff2cc" d="m225.55138 358.64816l2.557251 -4.4288025l4.4288025 -2.557251l5.114502 0l4.4288025 2.557251l2.557251 4.4288025l0 5.114502l-2.557251 4.4288025l-4.4288025 2.557251l-5.114502 0l-4.4288025 -2.557251l-2.557251 -4.4288025z" fill-rule="evenodd"/><path fill="#fff2cc" d="m136.66734 395.01004l2.5572662 -4.4288025l4.4288025 -2.557251l5.114502 0l4.4288025 2.557251l2.557251 4.4288025l0 5.1145325l-2.557251 4.4288025l-4.4288025 2.557251l-5.114502 0l-4.4288025 -2.557251l-2.5572662 -4.4288025z" fill-rule="evenodd"/><path fill="#fff2cc" d="m278.9776 1209.1357l2.557251 -4.428711l4.4288025 -2.557251l5.114502 0l4.4288025 2.557251l2.557251 4.428711l0 5.114502l-2.557251 4.428833l-4.4288025 2.557251l-5.114502 0l-4.4288025 -2.557251l-2.557251 -4.428833z" fill-rule="evenodd"/><path fill="#fff2cc" d="m201.89267 1217.5378l2.557251 -4.428711l4.4288025 -2.557251l5.114502 0l4.4288025 2.557251l2.557251 4.428711l0 5.114502l-2.557251 4.428833l-4.4288025 2.557251l-5.114502 0l-4.4288025 -2.557251l-2.557251 -4.428833z" fill-rule="evenodd"/><path fill="#fff2cc" d="m128.58699 350.56775l2.557251 -4.4288025l4.4288025 -2.557251l5.114502 0l4.4288025 2.557251l2.557251 4.4288025l0 5.114502l-2.557251 4.4288025l-4.4288025 2.557251l-5.114502 0l-4.4288025 -2.557251l-2.557251 -4.4288025z" fill-rule="evenodd"/><path fill="#fff2cc" d="m303.21872 1322.2616l2.557251 -4.428711l4.4288025 -2.557251l5.114502 0l4.4288025 2.557251l2.557251 4.428711l0 5.114624l-2.557251 4.428711l-4.4288025 2.557251l-5.114502 0l-4.4288025 -2.557251l-2.557251 -4.428711z" fill-rule="evenodd"/><path fill="#fff2cc" d="m249.79248 269.76355l2.557251 -4.4288025l4.4288025 -2.557251l5.114502 0l4.4288025 2.557251l2.557251 4.4288025l0 5.1145325l-2.557251 4.4288025l-4.4288025 2.557251l-5.114502 0l-4.4288025 -2.557251l-2.557251 -4.4288025z" fill-rule="evenodd"/><path fill="#fff2cc" d="m388.06256 999.0449l2.557251 -4.428833l4.4288025 -2.557251l5.114502 0l4.4288025 2.557251l2.557251 4.428833l0 5.114502l-2.557251 4.428772l-4.4288025 2.557251l-5.114502 0l-4.4288025 -2.557251l-2.557251 -4.428772z" fill-rule="evenodd"/><path fill="#fff2cc" d="m278.9776 1039.447l2.557251 -4.428833l4.4288025 -2.557251l5.114502 0l4.4288025 2.557251l2.557251 4.428833l0 5.114502l-2.557251 4.428833l-4.4288025 2.557251l-5.114502 0l-4.4288025 -2.557251l-2.557251 -4.428833z" fill-rule="evenodd"/><path fill="#fff2cc" d="m501.18768 1075.8088l2.557251 -4.428711l4.4288025 -2.557251l5.1144714 0l4.428833 2.557251l2.557251 4.428711l0 5.114502l-2.557251 4.428833l-4.428833 2.557251l-5.1144714 0l-4.4288025 -2.557251l-2.557251 -4.428833z" fill-rule="evenodd"/><path fill="#fff2cc" d="m412.30365 1112.1708l2.557251 -4.428833l4.4288025 -2.557251l5.114502 0l4.4288025 2.557251l2.557251 4.428833l0 5.114502l-2.557251 4.428833l-4.4288025 2.557251l-5.114502 0l-4.4288025 -2.557251l-2.557251 -4.428833z" fill-rule="evenodd"/><path fill="#fff2cc" d="m291.09814 990.9645l2.557251 -4.428772l4.4288025 -2.557251l5.1145325 0l4.4288025 2.557251l2.557251 4.428772l0 5.114502l-2.557251 4.428833l-4.4288025 2.557251l-5.1145325 0l-4.4288025 -2.557251l-2.557251 -4.428833z" fill-rule="evenodd"/><path fill="#fff2cc" d="m404.2233 1067.7285l2.557251 -4.428833l4.4288025 -2.557251l5.114502 0l4.4288025 2.557251l2.557251 4.428833l0 5.114502l-2.557251 4.428711l-4.4288025 2.557251l-5.114502 0l-4.4288025 -2.557251l-2.557251 -4.428711z" fill-rule="evenodd"/><path fill="#fff2cc" d="m315.33926 1104.0903l2.557251 -4.428833l4.4288025 -2.557251l5.114502 0l4.4288025 2.557251l2.557251 4.428833l0 5.114502l-2.557251 4.428833l-4.4288025 2.557251l-5.114502 0l-4.4288025 -2.557251l-2.557251 -4.428833z" fill-rule="evenodd"/><path fill="#fff2cc" d="m257.60492 780.9558l2.5572815 -4.428833l4.428772 -2.557251l5.1145325 0l4.4288025 2.557251l2.557251 4.428833l0 5.114502l-2.557251 4.428772l-4.4288025 2.557251l-5.1145325 0l-4.428772 -2.557251l-2.5572815 -4.428772z" fill-rule="evenodd"/><path fill="#fff2cc" d="m281.84604 894.08167l2.557251 -4.428833l4.4288025 -2.557251l5.114502 0l4.4288025 2.557251l2.557251 4.428833l0 5.114502l-2.557251 4.428772l-4.4288025 2.557251l-5.114502 0l-4.4288025 -2.557251l-2.557251 -4.428772z" fill-rule="evenodd"/><path fill="#fff2cc" d="m160.64053 772.87537l2.5572662 -4.428772l4.4288025 -2.557312l5.114502 0l4.4288025 2.557312l2.557251 4.428772l0 5.114502l-2.557251 4.428833l-4.4288025 2.557251l-5.114502 0l-4.4288025 -2.557251l-2.5572662 -4.428833z" fill-rule="evenodd"/><path fill="#fff2cc" d="m51.5556 813.27747l2.557251 -4.428833l4.4288025 -2.557251l5.114506 0l4.4288025 2.557251l2.557251 4.428833l0 5.114502l-2.557251 4.428772l-4.4288025 2.557251l-5.114506 0l-4.4288025 -2.557251l-2.557251 -4.428772z" fill-rule="evenodd"/><path fill="#fff2cc" d="m273.76566 849.63934l2.557251 -4.428772l4.4288025 -2.557251l5.114502 0l4.4288025 2.557251l2.5572815 4.428772l0 5.114502l-2.5572815 4.428833l-4.4288025 2.557251l-5.114502 0l-4.4288025 -2.557251l-2.557251 -4.428833z" fill-rule="evenodd"/><path fill="#fff2cc" d="m184.88164 886.0012l2.557251 -4.428772l4.4288025 -2.557251l5.114502 0l4.4288025 2.557251l2.557251 4.428772l0 5.114502l-2.557251 4.428833l-4.4288025 2.557251l-5.114502 0l-4.4288025 -2.557251l-2.557251 -4.428833z" fill-rule="evenodd"/><path fill="#fff2cc" d="m536.02765 875.9007l2.557251 -4.428772l4.428772 -2.557251l5.114502 0l4.428833 2.557251l2.557251 4.428772l0 5.114502l-2.557251 4.428833l-4.428833 2.557251l-5.114502 0l-4.428772 -2.557251l-2.557251 -4.428833z" fill-rule="evenodd"/><path fill="#fff2cc" d="m22.329222 855.14294l2.557253 -4.428833l4.4288006 -2.557251l5.1145077 0l4.4287987 2.557251l2.5572548 4.428833l0 5.114502l-2.5572548 4.428772l-4.4287987 2.557251l-5.1145077 0l-4.4288006 -2.557251l-2.557253 -4.428772z" fill-rule="evenodd"/><path fill="#fff2cc" d="m71.756516 763.33154l2.557251 -4.428772l4.4288025 -2.557251l5.114502 0l4.4288025 2.557251l2.557251 4.428772l0 5.114502l-2.557251 4.428833l-4.4288025 2.557251l-5.114502 0l-4.4288025 -2.557251l-2.557251 -4.428833z" fill-rule="evenodd"/><path fill="#fff2cc" d="m108.118164 827.9749l2.557251 -4.428772l4.4288025 -2.557312l5.114502 0l4.4288025 2.557312l2.557251 4.428772l0 5.114502l-2.557251 4.428833l-4.4288025 2.557251l-5.114502 0l-4.4288025 -2.557251l-2.557251 -4.428833z" fill-rule="evenodd"/><path fill="#fff2cc" d="m251.18689 390.13193l2.557251 -4.4288025l4.4288025 -2.557251l5.114502 0l4.4288025 2.557251l2.557251 4.4288025l0 5.114502l-2.557251 4.4288025l-4.4288025 2.557251l-5.114502 0l-4.4288025 -2.557251l-2.557251 -4.4288025z" fill-rule="evenodd"/><path fill="#fff2cc" d="m627.82776 1402.2279l2.557251 -4.428833l4.428833 -2.557251l5.114502 0l4.428772 2.557251l2.557251 4.428833l0 5.114502l-2.557251 4.428833l-4.428772 2.557251l-5.114502 0l-4.428833 -2.557251l-2.557251 -4.428833z" fill-rule="evenodd"/><path fill="#fff2cc" d="m749.03326 1321.4237l2.557251 -4.428833l4.428772 -2.557251l5.114502 0l4.428833 2.557251l2.557251 4.428833l0 5.114502l-2.557251 4.428833l-4.428833 2.557251l-5.114502 0l-4.428772 -2.557251l-2.557251 -4.428833z" fill-rule="evenodd"/><path fill="#fff2cc" d="m530.86334 1394.1475l2.557312 -4.428711l4.428772 -2.557251l5.114502 0l4.428833 2.557251l2.557251 4.428711l0 5.114502l-2.557251 4.428833l-4.428833 2.557251l-5.114502 0l-4.428772 -2.557251l-2.557312 -4.428833z" fill-rule="evenodd"/><path fill="#fff2cc" d="m652.06885 1313.3433l2.557251 -4.428711l4.428833 -2.557251l5.114502 0l4.428772 2.557251l2.557251 4.428711l0 5.114502l-2.557251 4.428833l-4.428772 2.557251l-5.114502 0l-4.428833 -2.557251l-2.557251 -4.428833z" fill-rule="evenodd"/><path fill="#fff2cc" d="m233.8544 248.80678l2.557251 -4.4288025l4.4288025 -2.5572662l5.114502 0l4.4288025 2.5572662l2.557251 4.4288025l0 5.114502l-2.557251 4.428787l-4.4288025 2.557251l-5.114502 0l-4.4288025 -2.557251l-2.557251 -4.428787z" fill-rule="evenodd"/><path fill="#fff2cc" d="m618.5756 1103.3346l2.557251 -4.428833l4.428833 -2.557251l5.114502 0l4.428772 2.557251l2.557251 4.428833l0 5.114502l-2.557251 4.428833l-4.428772 2.557251l-5.114502 0l-4.428833 -2.557251l-2.557251 -4.428833z" fill-rule="evenodd"/><path fill="#fff2cc" d="m521.61127 1095.2542l2.557251 -4.428711l4.428772 -2.557251l5.114502 0l4.428833 2.557251l2.557251 4.428711l0 5.114502l-2.557251 4.428833l-4.428833 2.557251l-5.114502 0l-4.428772 -2.557251l-2.557251 -4.428833z" fill-rule="evenodd"/><path fill="#fff2cc" d="m662.6677 1202.3197l2.557251 -4.428711l4.428772 -2.557251l5.114502 0l4.428833 2.557251l2.557251 4.428711l0 5.114502l-2.557251 4.428833l-4.428833 2.557251l-5.114502 0l-4.428772 -2.557251l-2.557251 -4.428833z" fill-rule="evenodd"/><path fill="#fff2cc" d="m674.78827 1153.8373l2.557251 -4.428833l4.428772 -2.557251l5.114563 0l4.428772 2.557251l2.557251 4.428833l0 5.114502l-2.557251 4.428711l-4.428772 2.557251l-5.114563 0l-4.428772 -2.557251l-2.557251 -4.428711z" fill-rule="evenodd"/><path fill="#fff2cc" d="m565.7033 1194.2393l2.557251 -4.428711l4.428833 -2.557251l5.114502 0l4.428772 2.557251l2.557251 4.428711l0 5.114502l-2.557251 4.428833l-4.428772 2.557251l-5.114502 0l-4.428833 -2.557251l-2.557251 -4.428833z" fill-rule="evenodd"/><path fill="#fff2cc" d="m699.02936 1266.9631l2.557251 -4.428833l4.428833 -2.557251l5.114502 0l4.428772 2.557251l2.557251 4.428833l0 5.114502l-2.557251 4.428711l-4.428772 2.557251l-5.114502 0l-4.428833 -2.557251l-2.557251 -4.428711z" fill-rule="evenodd"/><path fill="#fff2cc" d="m798.4606 1399.3011l2.557251 -4.428833l4.428772 -2.557251l5.114502 0l4.428833 2.557251l2.557251 4.428833l0 5.114502l-2.557251 4.428833l-4.428833 2.557251l-5.114502 0l-4.428772 -2.557251l-2.557251 -4.428833z" fill-rule="evenodd"/><path fill="#fff2cc" d="m1032.7911 1395.261l2.557251 -4.428833l4.428833 -2.557251l5.114502 0l4.428833 2.557251l2.557251 4.428833l0 5.114502l-2.557251 4.428711l-4.428833 2.557251l-5.114502 0l-4.428833 -2.557251l-2.557251 -4.428711z" fill-rule="evenodd"/><path fill="#fff2cc" d="m798.4606 1229.6123l2.557251 -4.428711l4.428772 -2.557251l5.114502 0l4.428833 2.557251l2.557251 4.428711l0 5.114502l-2.557251 4.428833l-4.428833 2.557251l-5.114502 0l-4.428772 -2.557251l-2.557251 -4.428833z" fill-rule="evenodd"/><path fill="#fff2cc" d="m931.78656 1302.3362l2.557251 -4.428833l4.428833 -2.557251l5.114502 0l4.428833 2.557251l2.557251 4.428833l0 5.114502l-2.557251 4.428711l-4.428833 2.557251l-5.114502 0l-4.428833 -2.557251l-2.557251 -4.428711z" fill-rule="evenodd"/><path fill="#fff2cc" d="m810.5811 1181.1299l2.557251 -4.428833l4.428772 -2.557251l5.114502 0l4.428833 2.557251l2.557251 4.428833l0 5.114502l-2.557251 4.428711l-4.428833 2.557251l-5.114502 0l-4.428772 -2.557251l-2.557251 -4.428711z" fill-rule="evenodd"/><path fill="#fff2cc" d="m701.49615 1221.532l2.557251 -4.428833l4.428833 -2.557251l5.114502 0l4.428772 2.557251l2.557251 4.428833l0 5.114502l-2.557251 4.428711l-4.428772 2.557251l-5.114502 0l-4.428833 -2.557251l-2.557251 -4.428711z" fill-rule="evenodd"/><path fill="#fff2cc" d="m834.8222 1294.2557l2.557251 -4.428833l4.428772 -2.557251l5.114502 0l4.428833 2.557251l2.557251 4.428833l0 5.114502l-2.557251 4.428833l-4.428833 2.557251l-5.114502 0l-4.428772 -2.557251l-2.557251 -4.428833z" fill-rule="evenodd"/><path fill="#fff2cc" d="m890.213 1047.8851l2.557251 -4.428833l4.428772 -2.557251l5.114502 0l4.428833 2.557251l2.557251 4.428833l0 5.114502l-2.557251 4.428833l-4.428833 2.557251l-5.114502 0l-4.428772 -2.557251l-2.557251 -4.428833z" fill-rule="evenodd"/><path fill="#fff2cc" d="m801.329 1084.247l2.557251 -4.428711l4.428772 -2.557251l5.114502 0l4.428833 2.557251l2.557251 4.428711l0 5.114502l-2.557251 4.428833l-4.428833 2.557251l-5.114502 0l-4.428772 -2.557251l-2.557251 -4.428833z" fill-rule="evenodd"/><path fill="#fff2cc" d="m704.36456 1076.1666l2.557251 -4.428833l4.428833 -2.557251l5.114502 0l4.428772 2.557251l2.557251 4.428833l0 5.114502l-2.557251 4.428711l-4.428772 2.557251l-5.114502 0l-4.428833 -2.557251l-2.557251 -4.428711z" fill-rule="evenodd"/><path fill="#fff2cc" d="m914.4541 959.0005l2.557251 -4.428772l4.428772 -2.557251l5.114502 0l4.428833 2.557251l2.557251 4.428772l0 5.114502l-2.557251 4.428833l-4.428833 2.557251l-5.114502 0l-4.428772 -2.557251l-2.557251 -4.428833z" fill-rule="evenodd"/><path fill="#fff2cc" d="m1186.1814 1084.8596l2.557251 -4.428711l4.428711 -2.557251l5.114502 0l4.428833 2.557251l2.557251 4.428711l0 5.114502l-2.557251 4.428833l-4.428833 2.557251l-5.114502 0l-4.428711 -2.557251l-2.557251 -4.428833z" fill-rule="evenodd"/><path fill="#fff2cc" d="m541.81213 1045.3083l2.557251 -4.428833l4.428833 -2.557251l5.114502 0l4.428833 2.557251l2.557251 4.428833l0 5.114502l-2.557251 4.428711l-4.428833 2.557251l-5.114502 0l-4.428833 -2.557251l-2.557251 -4.428711z" fill-rule="evenodd"/><path fill="#fff2cc" d="m444.84778 1037.2279l2.557251 -4.428833l4.4288025 -2.557251l5.114502 0l4.4288025 2.557251l2.557251 4.428833l0 5.114502l-2.557251 4.428711l-4.4288025 2.557373l-5.114502 0l-4.4288025 -2.557373l-2.557251 -4.428711z" fill-rule="evenodd"/><path fill="#fff2cc" d="m591.23944 953.49695l2.557251 -4.428833l4.428833 -2.557251l5.114502 0l4.428772 2.557251l2.557251 4.428833l0 5.114502l-2.557251 4.428772l-4.428772 2.557251l-5.114502 0l-4.428833 -2.557251l-2.557251 -4.428772z" fill-rule="evenodd"/><path fill="#fff2cc" d="m1071.6414 1323.1741l2.557251 -4.428711l4.428833 -2.557251l5.114502 0l4.428833 2.557251l2.557251 4.428711l0 5.114502l-2.557251 4.428833l-4.428833 2.557251l-5.114502 0l-4.428833 -2.557251l-2.557251 -4.428833z" fill-rule="evenodd"/><path fill="#fff2cc" d="m982.7574 1359.536l2.557251 -4.428833l4.428833 -2.557251l5.114502 0l4.428772 2.557251l2.557251 4.428833l0 5.114502l-2.557251 4.428833l-4.428772 2.557251l-5.114502 0l-4.428833 -2.557251l-2.557251 -4.428833z" fill-rule="evenodd"/><path fill="#fff2cc" d="m974.677 1315.0938l2.557251 -4.428833l4.428833 -2.557251l5.114502 0l4.428772 2.557251l2.557251 4.428833l0 5.114502l-2.557251 4.428711l-4.428772 2.557251l-5.114502 0l-4.428833 -2.557251l-2.557251 -4.428711z" fill-rule="evenodd"/><path fill="#fff2cc" d="m1095.8826 1234.2896l2.557251 -4.428833l4.428711 -2.557251l5.114502 0l4.428833 2.557251l2.557251 4.428833l0 5.114502l-2.557251 4.428711l-4.428833 2.557251l-5.114502 0l-4.428711 -2.557251l-2.557251 -4.428711z" fill-rule="evenodd"/><path fill="#fff2cc" d="m1070.4043 1083.9197l2.557251 -4.428833l4.428833 -2.557251l5.114502 0l4.428711 2.557251l2.557251 4.428833l0 5.114502l-2.557251 4.428711l-4.428711 2.557251l-5.114502 0l-4.428833 -2.557251l-2.557251 -4.428711z" fill-rule="evenodd"/><path fill="#fff2cc" d="m965.42487 1016.2004l2.557312 -4.428772l4.428772 -2.557251l5.114502 0l4.428833 2.557251l2.557251 4.428772l0 5.114502l-2.557251 4.428772l-4.428833 2.557251l-5.114502 0l-4.428772 -2.557251l-2.557312 -4.428772z" fill-rule="evenodd"/><path fill="#fff2cc" d="m1339.2386 1328.3278l2.557251 -4.428833l4.428711 -2.557251l5.114502 0l4.428833 2.557251l2.557251 4.428833l0 5.114502l-2.557251 4.428833l-4.428833 2.557251l-5.114502 0l-4.428711 -2.557251l-2.557251 -4.428833z" fill-rule="evenodd"/><path fill="#fff2cc" d="m1230.1537 1368.7299l2.557251 -4.428833l4.428711 -2.557251l5.114502 0l4.428833 2.557251l2.557251 4.428833l0 5.114502l-2.557251 4.428833l-4.428833 2.557251l-5.114502 0l-4.428711 -2.557251l-2.557251 -4.428833z" fill-rule="evenodd"/><path fill="#fff2cc" d="m1242.2742 1320.2473l2.557251 -4.428833l4.428833 -2.557251l5.114502 0l4.428833 2.557251l2.557251 4.428833l0 5.114502l-2.557251 4.428833l-4.428833 2.557251l-5.114502 0l-4.428833 -2.557251l-2.557251 -4.428833z" fill-rule="evenodd"/><path fill="#fff2cc" d="m1133.1892 1360.6494l2.557251 -4.428833l4.428833 -2.557251l5.114502 0l4.428833 2.557251l2.557251 4.428833l0 5.114502l-2.557251 4.428833l-4.428833 2.557251l-5.114502 0l-4.428833 -2.557251l-2.557251 -4.428833z" fill-rule="evenodd"/><path fill="#fff2cc" d="m1355.3993 1397.0114l2.557251 -4.428833l4.428833 -2.557251l5.114502 0l4.428833 2.557251l2.557251 4.428833l0 5.114502l-2.557251 4.428833l-4.428833 2.557251l-5.114502 0l-4.428833 -2.557251l-2.557251 -4.428833z" fill-rule="evenodd"/><path fill="#fff2cc" d="m1351.3591 1110.1565l2.557251 -4.428833l4.428833 -2.557251l5.114502 0l4.428833 2.557251l2.557251 4.428833l0 5.114502l-2.557251 4.428711l-4.428833 2.557251l-5.114502 0l-4.428833 -2.557251l-2.557251 -4.428711z" fill-rule="evenodd"/><path fill="#fff2cc" d="m1278.6359 1215.2019l2.557251 -4.428833l4.428833 -2.557251l5.114502 0l4.428711 2.557251l2.557251 4.428833l0 5.114502l-2.557251 4.428833l-4.428711 2.557251l-5.114502 0l-4.428833 -2.557251l-2.557251 -4.428833z" fill-rule="evenodd"/><path fill="#fff2cc" d="m1286.0266 968.8313l2.557251 -4.428772l4.428833 -2.557251l5.114502 0l4.428833 2.557251l2.557251 4.428772l0 5.114502l-2.557251 4.428833l-4.428833 2.557251l-5.114502 0l-4.428833 -2.557251l-2.557251 -4.428833z" fill-rule="evenodd"/><path fill="#fff2cc" d="m1358.2677 879.9467l2.557251 -4.428833l4.428833 -2.557251l5.114502 0l4.428833 2.557251l2.557251 4.428833l0 5.114502l-2.557251 4.428772l-4.428833 2.557251l-5.114502 0l-4.428833 -2.557251l-2.557251 -4.428772z" fill-rule="evenodd"/><path fill="#fff2cc" d="m985.6258 966.25446l2.557251 -4.428772l4.428833 -2.557251l5.114502 0l4.428772 2.557251l2.557251 4.428772l0 5.114563l-2.557251 4.428772l-4.428772 2.557251l-5.114502 0l-4.428833 -2.557251l-2.557251 -4.428772z" fill-rule="evenodd"/><path fill="#fff2cc" d="m872.66144 902.1741l2.557251 -4.428833l4.428772 -2.557251l5.114502 0l4.428833 2.557251l2.557251 4.428833l0 5.114502l-2.557251 4.428772l-4.428833 2.557251l-5.114502 0l-4.428772 -2.557251l-2.557251 -4.428772z" fill-rule="evenodd"/><path fill="#fff2cc" d="m1131.0531 930.4431l2.557251 -4.428833l4.428833 -2.557251l5.114502 0l4.428833 2.557251l2.557251 4.428833l0 5.114502l-2.557251 4.428833l-4.428833 2.557251l-5.114502 0l-4.428833 -2.557251l-2.557251 -4.428833z" fill-rule="evenodd"/><path fill="#fff2cc" d="m938.0887 866.3627l2.557251 -4.428772l4.428833 -2.557251l5.114502 0l4.428772 2.557251l2.557251 4.428772l0 5.114502l-2.557251 4.428833l-4.428772 2.557251l-5.114502 0l-4.428833 -2.557251l-2.557251 -4.428833z" fill-rule="evenodd"/><path fill="#666666" d="m758.71844 694.70886l60.554993 -46.239136l-14.851074 106.0932z" fill-rule="evenodd"/><path stroke="#666666" stroke-width="12.0" stroke-linejoin="round" stroke-linecap="butt" d="m758.71844 694.70886l60.554993 -46.239136l-14.851074 106.0932z" fill-rule="evenodd"/><path fill="#666666" d="m737.01025 665.5531l-46.239075 -60.555054l106.09314 14.851135z" fill-rule="evenodd"/><path stroke="#666666" stroke-width="12.0" stroke-linejoin="round" stroke-linecap="butt" d="m737.01025 665.5531l-46.239075 -60.555054l106.09314 14.851135z" fill-rule="evenodd"/><path fill="#ff3d3d" d="m961.37195 516.55l0 0l0 0c17.910889 23.456238 25.770264 53.066833 21.849121 82.31781c-3.9211426 29.250977 -19.301575 55.746277 -42.757812 73.657166l-104.23773 79.59473c-7.9345703E-4 6.1035156E-4 -0.001953125 4.272461E-4 -0.0025634766 -3.6621094E-4l-135.06372 -176.88336l0 0c-6.1035156E-4 -7.9345703E-4 -4.8828125E-4 -0.001953125 3.6621094E-4 -0.0025634766l104.237366 -79.5921l0 0c48.84503 -37.297546 118.67743 -27.936401 155.97498 20.908691z" fill-rule="evenodd"/><path stroke="#ff3d3d" stroke-width="12.0" stroke-linejoin="round" stroke-linecap="butt" d="m961.37195 516.55l0 0l0 0c17.910889 23.456238 25.770264 53.066833 21.849121 82.31781c-3.9211426 29.250977 -19.301575 55.746277 -42.757812 73.657166l-104.23773 79.59473c-7.9345703E-4 6.1035156E-4 -0.001953125 4.272461E-4 -0.0025634766 -3.6621094E-4l-135.06372 -176.88336l0 0c-6.1035156E-4 -7.9345703E-4 -4.8828125E-4 -0.001953125 3.6621094E-4 -0.0025634766l104.237366 -79.5921l0 0c48.84503 -37.297546 118.67743 -27.936401 155.97498 20.908691z" fill-rule="evenodd"/><path fill="#cff3f0" d="m884.6659 527.18475l0 0c16.721802 -12.768555 40.62848 -9.563843 53.397095 7.157959l0 0c6.131653 8.03009 8.822266 18.167114 7.4798584 28.18097c-1.3423462 10.013916 -6.607727 19.084412 -14.637817 25.216064l0 0c-16.721802 12.768616 -40.62848 9.563843 -53.397095 -7.157959l0 0c-12.768555 -16.721802 -9.563843 -40.628418 7.157959 -53.397034z" fill-rule="evenodd"/><path stroke="#9fc5e8" stroke-width="24.0" stroke-linejoin="round" stroke-linecap="butt" d="m884.6659 527.18475l0 0c16.721802 -12.768555 40.62848 -9.563843 53.397095 7.157959l0 0c6.131653 8.03009 8.822266 18.167114 7.4798584 28.18097c-1.3423462 10.013916 -6.607727 19.084412 -14.637817 25.216064l0 0c-16.721802 12.768616 -40.62848 9.563843 -53.397095 -7.157959l0 0c-12.768555 -16.721802 -9.563843 -40.628418 7.157959 -53.397034z" fill-rule="evenodd"/><path fill="#434343" d="m819.34216 552.18l27.754883 36.348022l-64.10968 48.95343l-27.754944 -36.348022z" fill-rule="evenodd"/><path stroke="#434343" stroke-width="12.0" stroke-linejoin="round" stroke-linecap="butt" d="m819.34216 552.18l27.754883 36.348022l-64.10968 48.95343l-27.754944 -36.348022z" fill-rule="evenodd"/><path fill="#434343" d="m862.36816 608.52716l27.754944 36.348022l-64.10968 48.95343l-27.754944 -36.348022z" fill-rule="evenodd"/><path stroke="#434343" stroke-width="12.0" stroke-linejoin="round" stroke-linecap="butt" d="m862.36816 608.52716l27.754944 36.348022l-64.10968 48.95343l-27.754944 -36.348022z" fill-rule="evenodd"/><path fill="#999999" d="m438.14847 698.57007l0 0c-2.3552551 -21.34552 5.3775635 -42.47638 19.917114 -54.425842c14.539581 -11.949463 33.335968 -12.621948 48.413208 -1.7320557l0 0c5.3408203 -12.411194 15.116058 -20.980286 26.368927 -23.115234c11.252869 -2.1349487 22.661621 2.414917 30.77539 12.2734375l0 0c4.5496826 -11.252808 13.483093 -18.813232 23.630127 -19.998474c10.147095 -1.1853027 20.071777 4.1724243 26.252258 14.171814l0 0c8.219666 -11.9279175 21.297363 -16.950073 33.57434 -12.893311c12.2769165 4.0567017 21.548096 16.463745 23.801697 31.852417l0 0c10.070496 3.3875732 18.459045 11.999268 22.99823 23.610046c4.5392456 11.610779 4.7838135 25.081726 0.6706543 36.932312l0 0c9.916504 15.916626 12.236206 37.125366 6.093445 55.711487c-6.1427 18.58612 -19.825012 31.757202 -35.940918 34.598145c-0.11364746 17.443726 -7.8709717 33.44983 -20.282104 41.848938c-12.411072 8.399109 -27.537903 7.8796387 -39.549866 -1.3582153l0 0c-5.116455 20.891907 -19.517578 36.263916 -36.981567 39.474854c-17.46399 3.2108765 -34.860107 -6.3149414 -44.672485 -24.461975l0 0c-12.027985 8.944763 -26.460571 11.521423 -40.042023 7.1488647c-13.581451 -4.3726196 -25.167786 -15.326172 -32.145325 -30.389832l0 0c-12.291077 1.7738037 -24.174866 -6.079529 -29.753448 -19.662354c-5.578583 -13.582886 -3.6644592 -30.003784 4.7924194 -41.1131l0 0c-10.963959 -7.958191 -16.558441 -23.749878 -13.866119 -39.14032c2.6923218 -15.390503 13.06131 -26.89215 25.699982 -28.507385z" fill-rule="evenodd"/><path fill="#000000" fill-opacity="0.0" d="m426.07166 767.04047l0 0c5.1739197 3.7554932 11.151001 5.4591064 17.128754 4.882019m7.8295593 55.894775c2.5706482 -0.37097168 5.090393 -1.1565552 7.4942017 -2.3365479m64.689514 25.576538c-1.8079834 -3.34375 -3.3217773 -6.916809 -4.515503 -10.658386m86.17273 -4.3551025l0 0c0.9328003 -3.808899 1.5372314 -7.729065 1.8030396 -11.695129m58.02661 -28.794128c0.12097168 -18.571533 -8.432312 -35.575806 -21.9859 -43.709045m51.83313 -46.598633c-2.1949463 6.3239746 -5.5457764 11.933899 -9.789795 16.389832m-13.877014 -76.93384l0 0c0.37402344 2.553772 0.54711914 5.145874 0.51690674 7.7404785m-57.891968 -26.698792l0 0c-2.050415 2.9754028 -3.739685 6.300415 -5.0151978 9.87146m-44.867615 -4.0461426l0 0c-1.0927124 2.7025757 -1.9086914 5.562317 -2.4290771 8.513428m-54.716125 2.3286133l0 0c3.1903381 2.3043213 6.1418457 5.077759 8.789612 8.2595215m-77.11905 47.89868l0 0c0.32461548 2.9420166 0.8375244 5.8477173 1.5339355 8.689941" fill-rule="evenodd"/><path fill="#999999" d="m777.0117 843.73926l0 0c11.776184 17.958252 14.462891 40.298706 6.920105 57.54138c-7.5427856 17.242737 -23.992188 26.363708 -42.368164 23.492615l0 0c0.86590576 13.483887 -3.9626465 25.553528 -13.025085 32.558167c-9.062439 7.0046387 -21.294373 8.12146 -32.99585 3.0126953l0 0c1.0458984 12.092712 -3.489502 22.881653 -11.996826 28.538391c-8.507324 5.6567993 -19.782593 5.3807983 -29.824707 -0.7300415l0 0c-1.9192505 14.358276 -11.299438 24.763672 -24.081665 26.713623c-12.782166 1.9500122 -26.670593 -4.9055786 -35.6557 -17.600342l0 0c-10.512085 1.5460815 -21.89325 -2.3267212 -31.202942 -10.617981c-9.309631 -8.291199 -15.6345215 -20.187439 -17.340576 -32.61505l0 0c-16.054749 -9.691284 -27.737183 -27.543701 -30.687561 -46.89508c-2.950409 -19.35138 3.274414 -37.29431 16.351562 -47.132874c-7.8066406 -15.599731 -8.148315 -33.383484 -0.8932495 -46.496643c7.255066 -13.113159 20.973938 -19.508057 35.868774 -16.719849l0 0c-4.9104614 -20.941284 0.9573364 -41.171875 15.068359 -51.951416c14.110962 -10.779541 33.935486 -10.175598 50.90857 1.5509644l0 0c6.6661987 -13.425842 18.36267 -22.265747 32.450867 -24.525635c14.088135 -2.2598267 29.381348 2.2506714 42.42975 12.514038l0 0c10.151611 -7.1533813 24.304504 -5.5410767 35.43463 4.036682c11.130127 9.577698 16.868164 25.082092 14.366333 38.818237l0 0c13.380554 2.1228027 25.526184 13.66217 30.103455 28.60083c4.5772705 14.93866 0.5489502 29.891418 -9.984375 37.061035z" fill-rule="evenodd"/><path fill="#000000" fill-opacity="0.0" d="m756.73627 777.23395l0 0c-6.314331 -1.00177 -12.414307 0.1895752 -17.481018 3.4140015m-32.318176 -46.271423c-2.123169 1.4961548 -4.0130005 3.338745 -5.6207275 5.4802856m-69.256226 6.5305786c3.1274414 2.1607056 6.0966187 4.6592407 8.856812 7.453064m-74.83624 42.9494l0 0c0.8952637 3.817871 2.133728 7.5861206 3.6947021 11.241699m-38.668884 51.972412c8.311401 16.608276 23.644043 27.887085 39.41223 28.991821m-25.076843 65.0343c-0.9104004 -6.631897 -0.46679688 -13.151367 1.2960815 -19.047241m47.246338 62.282654l0 0c-1.4910278 -2.1066895 -2.8204346 -4.338745 -3.9697266 -6.6651m63.70587 -2.4484863l0 0c0.47875977 -3.581665 0.47717285 -7.3112183 -0.0048217773 -11.072449m41.82733 -16.734924l0 0c-0.25115967 -2.9042358 -0.8203125 -5.823181 -1.6942749 -8.689514m47.71588 -26.881897l0 0c-3.8883667 -0.60754395 -7.7764893 -1.7415161 -11.579041 -3.3770752m47.026184 -77.6568l0 0c-1.6230469 -2.4751587 -3.397461 -4.8325806 -5.3067017 -7.050232" fill-rule="evenodd"/></g></svg>